{"glyphs":{":":{"x_min":0,"x_max":294,"ha":294,"o":"m 154 221 q 180 221 196 204 q 211 186 206 161 q 202 137 181 120 q 160 102 134 102 q 108 102 92 120 q 77 137 82 161 q 86 186 107 204 q 128 221 154 221 z m 193 396 q 219 396 234 378 q 250 361 246 336 q 241 312 220 294 q 199 277 173 277 q 147 277 132 294 q 117 312 121 336 q 126 361 146 378 q 167 396 193 396 z"},"$":{"x_min":0,"x_max":659,"ha":659,"o":"m 262 -192 q 253 -210 240 -218 q 227 -227 212 -228 q 198 -230 183 -226 q 168 -222 154 -214 l 176 -115 q 111 -103 71 -72 q 31 -40 14 1 q -3 42 1 88 q 5 134 28 175 q 50 216 90 246 q 130 277 184 287 q 191 287 195 282 q 199 278 200 272 q 201 266 199 260 q 197 255 191 252 q 146 243 113 218 q 80 193 60 160 q 41 126 37 88 q 33 50 47 16 q 61 -18 94 -44 q 128 -70 184 -80 l 267 299 q 227 318 190 338 q 152 359 124 384 q 97 410 83 443 q 69 476 77 520 q 83 557 108 590 q 132 623 169 648 q 206 673 254 688 q 301 702 354 701 q 356 707 357 713 q 358 719 359 724 q 370 754 385 765 q 400 776 416 776 q 431 776 445 768 q 459 760 468 751 l 454 685 q 501 670 534 644 q 567 619 582 584 q 597 550 592 507 q 588 464 561 415 q 552 410 540 414 q 528 419 530 432 q 552 473 556 508 q 560 542 548 570 q 537 597 510 618 q 484 638 446 650 l 385 371 q 413 356 441 340 q 469 324 493 305 q 517 286 536 264 q 556 241 568 213 q 588 164 588 121 q 588 78 572 41 q 555 4 525 -26 q 495 -55 456 -76 q 416 -97 370 -109 q 325 -121 277 -123 z m 287 -80 q 335 -72 376 -50 q 416 -29 440 4 q 464 36 468 78 q 471 119 445 167 q 431 193 409 213 q 387 233 359 250 q 339 162 321 78 q 303 -6 287 -80 z m 346 661 q 313 658 284 648 q 255 637 234 621 q 213 605 200 584 q 188 564 188 541 q 188 501 218 472 q 248 444 293 419 z"},"?":{"x_min":0,"x_max":760,"ha":760,"o":"m 165 378 q 118 451 110 521 q 102 591 129 647 q 156 703 217 740 q 278 778 368 786 q 425 791 480 779 q 535 767 576 738 q 618 709 640 662 q 662 616 653 552 q 643 481 610 429 q 578 377 534 334 q 489 290 438 250 q 388 210 343 162 q 298 113 264 52 q 229 -9 217 -94 q 215 -100 196 -105 q 178 -110 156 -110 q 134 -111 116 -104 q 97 -97 95 -79 q 105 0 140 58 q 174 115 220 161 q 266 207 318 247 q 369 287 414 332 q 459 376 490 430 q 521 485 527 560 q 531 608 519 644 q 507 679 484 702 q 462 725 432 736 q 401 747 368 748 q 291 749 240 718 q 188 687 164 636 q 141 586 148 523 q 155 460 196 398 q 197 393 194 388 q 192 382 188 379 q 183 376 177 375 q 171 374 165 378 z m 153 -137 q 173 -137 184 -150 q 196 -163 192 -182 q 189 -201 174 -214 q 158 -227 138 -227 q 118 -227 106 -214 q 95 -201 98 -182 q 102 -163 118 -150 q 133 -137 153 -137 z"},"<":{"x_min":0,"x_max":581,"ha":581,"o":"m 166 257 l 486 -37 q 484 -49 477 -64 q 470 -78 457 -87 q 444 -96 426 -96 q 407 -95 381 -77 l 39 238 l 523 475 q 538 473 542 462 q 546 450 537 442 z"},"'":{"x_min":0,"x_max":275,"ha":275,"o":"m 136 531 q 127 527 116 527 q 104 527 94 532 q 84 536 78 546 q 71 555 72 571 l 148 776 q 168 794 188 796 q 209 799 224 770 z"},"=":{"x_min":0,"x_max":662,"ha":662,"o":"m 94 194 l 540 194 q 547 183 552 166 q 556 150 553 134 q 550 117 536 104 q 521 91 490 87 l 49 87 q 45 102 44 118 q 43 135 48 150 q 52 165 63 176 q 74 188 94 194 z m 141 424 l 587 424 q 594 413 598 396 q 603 380 600 364 q 597 348 582 335 q 568 322 537 318 l 96 318 q 92 333 91 350 q 90 366 94 381 q 99 396 110 408 q 121 419 141 424 z"},"a":{"x_min":0,"x_max":467,"ha":467,"o":"m 476 113 q 487 121 498 115 q 509 109 508 97 q 497 76 486 58 q 474 40 460 27 q 445 14 426 7 q 407 0 380 0 q 368 0 350 2 q 331 5 313 15 q 295 25 280 46 q 264 67 258 104 q 234 60 198 30 q 163 1 118 1 q 67 1 38 30 q 8 59 -2 103 q -11 147 -2 198 q 7 248 32 291 q 56 334 96 362 q 135 390 186 388 q 224 386 248 368 q 272 350 284 321 q 287 332 290 343 q 293 354 297 365 q 303 383 324 390 q 345 398 367 396 q 389 394 406 382 q 424 369 423 347 q 420 338 410 311 q 401 284 390 250 q 380 215 371 177 q 362 139 360 108 q 357 76 364 56 q 371 36 393 37 q 408 37 420 44 q 433 52 444 64 q 454 75 462 88 q 470 101 476 113 z m 159 46 q 179 54 198 76 q 217 98 232 128 q 246 158 254 192 q 263 225 263 256 q 263 286 253 310 q 243 334 220 344 q 198 351 178 330 q 159 308 146 272 q 132 237 124 194 q 116 152 116 116 q 117 81 127 60 q 137 39 159 46 z"},"L":{"x_min":0,"x_max":579,"ha":579,"o":"m 413 740 q 386 741 364 727 q 342 713 327 690 q 312 667 306 638 q 300 609 306 580 q 312 551 331 526 q 350 501 386 486 q 392 482 393 476 q 394 469 392 464 q 390 458 384 454 q 378 451 371 453 q 327 472 303 504 q 279 535 272 571 q 264 607 272 644 q 279 680 298 710 q 316 739 344 758 q 373 776 407 776 q 467 778 502 754 q 536 729 552 686 q 567 644 566 587 q 565 530 553 467 q 541 404 522 338 q 503 273 482 214 q 461 154 441 104 q 421 55 408 23 q 454 1 498 -24 q 542 -50 586 -74 q 630 -97 674 -116 q 719 -134 766 -142 q 814 -149 865 -142 q 916 -135 973 -108 q 992 -108 996 -119 q 999 -130 991 -139 q 922 -188 862 -209 q 803 -230 750 -231 q 697 -232 648 -218 q 600 -203 552 -180 q 505 -157 457 -130 q 409 -103 358 -79 q 320 -142 269 -182 q 218 -222 143 -227 q 83 -226 48 -199 q 14 -172 4 -134 q -6 -95 8 -52 q 23 -10 60 22 q 96 54 154 68 q 212 83 291 65 q 300 87 316 126 q 331 165 350 216 q 368 266 387 323 q 406 380 422 436 q 437 493 448 546 q 458 599 459 640 q 460 682 450 708 q 439 735 413 740 z m 111 -185 q 143 -191 177 -150 q 211 -108 246 -37 q 190 -22 149 -26 q 108 -29 82 -44 q 56 -58 45 -80 q 34 -101 38 -122 q 42 -143 60 -161 q 78 -179 111 -185 z"},"3":{"x_min":0,"x_max":746,"ha":746,"o":"m 134 443 q 130 511 149 574 q 168 636 207 682 q 246 729 303 756 q 360 783 431 781 q 474 780 514 768 q 555 756 586 733 q 617 710 636 674 q 655 639 655 591 q 656 548 642 508 q 627 468 602 434 q 577 399 543 372 q 509 345 472 327 q 544 313 587 266 q 630 220 634 145 q 637 65 603 -4 q 569 -72 511 -122 q 453 -173 380 -200 q 306 -228 230 -226 q 168 -224 124 -203 q 80 -182 52 -149 q 24 -116 12 -74 q -1 -32 0 12 q 2 56 16 98 q 31 140 58 174 q 85 208 122 230 q 160 253 208 257 q 219 253 221 240 q 223 228 211 221 q 163 217 127 191 q 91 165 69 126 q 47 88 40 42 q 32 -4 42 -47 q 51 -90 79 -125 q 107 -160 156 -177 q 198 -187 242 -179 q 285 -171 325 -150 q 365 -128 400 -96 q 435 -63 460 -24 q 485 15 498 58 q 512 102 510 144 q 506 210 474 251 q 442 292 373 296 q 365 300 362 310 q 360 320 368 331 q 410 345 441 371 q 472 397 492 431 q 512 465 522 506 q 531 546 531 588 q 531 621 521 649 q 511 677 493 698 q 475 719 450 730 q 426 742 397 742 q 341 742 298 714 q 254 686 224 642 q 195 599 181 546 q 167 494 170 445 q 167 437 154 434 q 141 430 134 443 z"},";":{"x_min":0,"x_max":361,"ha":361,"o":"m 162 221 q 175 220 186 214 q 196 207 203 196 q 210 186 212 174 q 215 161 212 149 q 206 123 192 100 q 179 76 164 58 q 149 41 136 32 q 124 22 119 24 q 110 28 114 41 q 119 54 126 68 q 133 83 138 94 q 143 104 135 104 q 109 106 95 124 q 81 142 86 166 q 92 190 114 206 q 136 223 162 221 z m 207 396 q 233 396 248 378 q 264 361 259 336 q 255 312 234 294 q 213 277 187 277 q 161 277 146 294 q 130 312 134 336 q 139 361 160 378 q 181 396 207 396 z"},"J":{"x_min":0,"x_max":667,"ha":667,"o":"m 522 5 q 561 10 588 23 q 614 36 632 52 q 649 68 660 84 q 670 101 676 113 q 687 121 698 114 q 709 108 708 97 q 698 78 685 58 q 672 37 650 19 q 628 1 594 -12 q 559 -26 507 -32 q 483 -90 450 -150 q 418 -209 374 -258 q 330 -306 274 -336 q 217 -367 146 -367 q 98 -367 64 -348 q 31 -330 14 -300 q -2 -271 0 -234 q 3 -197 26 -160 q 48 -124 94 -92 q 139 -60 208 -40 q 255 -27 300 -20 q 346 -12 383 -8 q 391 9 406 50 q 420 90 438 144 q 455 199 474 262 q 493 326 508 390 q 524 455 536 515 q 547 575 550 622 q 552 669 544 698 q 537 728 516 731 q 489 733 466 720 q 444 707 428 684 q 412 662 405 633 q 398 604 402 576 q 407 547 425 521 q 443 495 478 478 q 484 473 485 467 q 486 461 484 456 q 481 450 476 446 q 470 443 463 445 q 419 466 396 498 q 373 531 368 568 q 362 604 370 640 q 379 677 400 706 q 420 734 449 752 q 478 769 512 767 q 566 765 598 738 q 629 712 643 668 q 657 625 656 568 q 656 511 646 448 q 636 385 620 320 q 603 255 585 196 q 567 137 550 88 q 533 38 522 5 z m 109 -319 q 137 -321 164 -308 q 191 -294 216 -271 q 241 -248 264 -218 q 287 -189 306 -158 q 325 -127 340 -98 q 356 -68 366 -46 q 335 -50 294 -57 q 253 -64 211 -77 q 163 -91 128 -114 q 93 -137 72 -164 q 50 -190 42 -217 q 33 -244 38 -266 q 42 -288 60 -302 q 78 -317 109 -319 z"},"V":{"x_min":0,"x_max":747,"ha":747,"o":"m 151 -225 q 113 -226 92 -206 q 71 -185 64 -150 q 56 -114 60 -68 q 63 -21 73 30 q 83 80 97 131 q 111 182 126 227 q 140 272 152 308 q 164 343 169 362 q 174 378 184 412 q 194 447 204 489 q 214 531 220 576 q 226 620 222 656 q 219 693 202 716 q 186 740 151 740 q 127 740 105 726 q 83 711 67 688 q 51 665 42 636 q 33 607 36 579 q 39 551 56 526 q 74 501 109 486 q 115 482 116 476 q 117 469 115 464 q 113 458 108 454 q 102 451 95 453 q 52 472 30 503 q 7 534 2 570 q -3 606 6 642 q 16 679 38 709 q 59 739 89 758 q 119 776 155 776 q 221 776 260 754 q 298 732 317 696 q 336 659 338 612 q 340 564 333 514 q 326 465 313 417 q 300 369 289 330 q 284 315 268 272 q 252 228 232 172 q 211 115 191 53 q 171 -9 159 -62 q 147 -114 148 -150 q 148 -186 169 -189 q 221 -192 272 -161 q 324 -130 372 -75 q 421 -20 466 54 q 511 128 550 210 q 590 292 622 378 q 654 464 676 544 q 699 623 711 690 q 723 758 722 804 q 717 823 730 836 q 744 850 764 854 q 784 859 806 853 q 827 847 839 828 q 835 758 817 676 q 799 594 769 507 q 739 420 698 332 q 657 244 608 163 q 560 82 505 12 q 450 -59 392 -112 q 333 -164 272 -194 q 211 -224 151 -225 z"},"\"":{"x_min":0,"x_max":364,"ha":364,"o":"m 222 531 q 213 527 202 527 q 190 527 180 532 q 170 536 164 546 q 157 555 158 571 l 234 776 q 254 794 274 796 q 295 799 310 770 z m 86 531 q 77 527 66 527 q 54 527 44 532 q 34 536 28 546 q 21 555 22 571 l 98 776 q 118 794 138 796 q 159 799 174 770 z"},"7":{"x_min":0,"x_max":646,"ha":646,"o":"m 124 -203 q 113 -219 92 -224 q 71 -230 50 -227 q 29 -224 14 -214 q -2 -204 0 -188 q 1 -68 30 51 q 58 170 110 280 q 161 390 235 487 q 309 584 401 662 q 366 654 317 646 q 268 639 218 638 q 167 637 122 645 q 76 653 48 676 q 32 689 33 708 q 34 726 44 742 q 55 759 72 771 q 88 783 104 783 q 127 759 164 748 q 200 736 244 732 q 288 728 336 732 q 385 735 432 742 q 478 748 519 757 q 560 766 590 774 q 604 774 609 763 q 614 752 607 743 q 495 639 410 538 q 324 436 264 324 q 205 213 170 84 q 135 -44 124 -203 z"},"S":{"x_min":0,"x_max":816,"ha":816,"o":"m 330 752 q 315 732 310 710 q 306 689 313 669 q 320 649 339 632 q 358 616 389 606 q 389 645 404 676 q 419 707 444 730 q 469 752 501 764 q 533 776 567 777 q 608 777 635 761 q 662 745 673 720 q 684 695 679 666 q 674 637 652 612 q 629 588 589 572 q 549 555 491 555 q 538 516 582 487 q 626 458 660 424 q 694 389 714 343 q 733 297 730 225 q 727 142 693 63 q 659 -16 602 -79 q 545 -142 470 -182 q 394 -221 309 -225 q 234 -228 177 -204 q 120 -180 82 -138 q 43 -97 23 -42 q 3 12 0 70 q -2 128 13 184 q 28 240 60 285 q 93 330 142 358 q 192 387 258 390 q 309 392 356 376 q 402 360 434 329 q 467 298 480 252 q 493 207 477 151 q 473 145 466 144 q 460 142 454 144 q 449 146 445 150 q 441 155 442 161 q 455 206 444 242 q 434 279 408 304 q 381 330 343 343 q 305 356 263 354 q 192 351 144 315 q 95 279 68 225 q 41 171 37 106 q 33 42 52 -16 q 71 -75 114 -120 q 156 -166 222 -182 q 271 -190 318 -176 q 365 -161 408 -130 q 450 -100 486 -57 q 521 -14 548 34 q 574 83 589 134 q 604 184 605 229 q 606 278 594 314 q 583 349 564 376 q 545 402 522 424 q 498 445 474 466 q 451 487 430 510 q 410 534 397 566 q 353 577 324 598 q 295 620 282 648 q 268 675 272 708 q 277 741 301 774 q 316 782 326 773 q 336 764 330 752 z m 455 593 q 509 588 547 597 q 585 606 608 623 q 631 640 640 660 q 648 681 643 700 q 638 718 619 730 q 600 743 568 743 q 539 743 513 728 q 487 712 470 689 q 454 666 448 640 q 443 614 455 593 z"},"}":{"x_min":0,"x_max":436,"ha":436,"o":"m 296 283 q 266 293 254 318 q 242 344 242 378 q 241 412 248 452 q 255 493 264 534 q 273 575 280 614 q 287 653 286 684 q 286 715 274 735 q 262 755 232 759 q 223 764 223 776 q 223 789 236 795 q 296 790 330 768 q 364 746 378 714 q 393 681 393 640 q 393 598 386 555 q 378 512 368 470 q 357 427 351 391 q 345 355 348 329 q 350 303 369 292 q 377 286 378 276 q 379 266 365 259 q 339 253 324 213 q 309 173 296 117 q 282 61 266 -2 q 249 -66 219 -120 q 189 -174 141 -210 q 93 -245 17 -245 q 6 -240 6 -226 q 6 -213 17 -209 q 60 -208 84 -176 q 109 -144 124 -95 q 139 -46 150 13 q 161 72 178 126 q 194 181 221 224 q 248 266 296 283 z"},"Z":{"x_min":0,"x_max":820,"ha":820,"o":"m 311 592 q 308 552 293 520 q 278 488 256 466 q 235 443 209 430 q 183 418 157 417 q 111 414 82 440 q 54 465 42 505 q 31 545 38 593 q 46 641 72 682 q 98 724 144 753 q 190 782 256 784 q 306 785 359 780 q 412 776 466 768 q 520 760 574 750 q 627 741 677 733 q 719 756 760 769 q 801 782 839 780 q 878 779 894 760 q 911 742 900 722 q 888 702 846 688 q 804 675 726 685 q 639 623 560 546 q 481 468 404 393 q 509 424 578 407 q 647 390 684 342 q 721 293 728 220 q 734 148 715 68 q 696 -12 654 -92 q 611 -173 550 -237 q 488 -301 408 -341 q 329 -381 237 -381 q 160 -381 110 -350 q 59 -319 32 -270 q 5 -220 1 -158 q -3 -97 14 -38 q 30 22 66 74 q 102 126 156 157 q 209 188 278 192 q 348 196 431 159 q 437 154 438 148 q 438 142 436 137 q 433 132 428 128 q 422 125 416 126 q 348 156 290 156 q 233 155 188 132 q 142 110 110 71 q 77 32 58 -16 q 40 -63 36 -114 q 33 -164 46 -208 q 59 -253 90 -287 q 120 -321 169 -336 q 222 -347 274 -331 q 325 -315 372 -280 q 419 -244 460 -194 q 500 -144 530 -87 q 561 -30 580 30 q 599 89 603 143 q 607 197 594 242 q 581 287 548 314 q 514 340 459 346 q 404 351 324 326 q 313 322 298 328 q 282 333 270 344 q 258 354 254 368 q 250 381 264 394 q 349 475 435 556 q 521 636 620 700 q 575 706 526 712 q 476 717 427 718 q 378 720 331 717 q 284 714 242 704 q 193 691 159 667 q 125 643 106 615 q 87 587 82 558 q 76 528 84 504 q 91 481 110 466 q 130 452 160 453 q 179 454 198 463 q 217 472 234 490 q 250 507 262 534 q 273 560 276 595 q 284 609 297 606 q 310 603 311 592 z m 776 718 q 808 714 829 718 q 850 722 859 728 q 868 735 864 740 q 859 745 841 743 q 814 739 776 718 z"},"x":{"x_min":0,"x_max":370,"ha":370,"o":"m 188 381 q 189 335 192 294 q 194 254 199 219 q 231 270 258 315 q 284 360 298 387 q 304 387 312 385 q 320 383 326 380 q 333 376 336 371 q 340 366 337 360 q 331 347 318 326 q 305 305 288 278 q 271 252 250 222 q 230 191 209 160 q 223 99 244 67 q 265 35 297 37 q 326 39 346 62 q 365 86 379 113 q 383 117 389 118 q 395 118 400 116 q 405 113 408 108 q 412 104 411 97 q 401 76 390 58 q 378 41 364 28 q 349 15 330 8 q 310 0 284 0 q 237 1 204 18 q 170 35 146 66 q 130 44 116 24 q 102 4 91 -13 q 82 -15 74 -12 q 66 -10 60 -6 q 55 -1 54 4 q 53 10 58 14 q 69 26 86 49 q 103 72 123 102 q 110 126 100 156 q 91 185 84 217 q 74 178 60 143 q 47 108 33 82 q 28 78 22 77 q 16 76 10 78 q 5 80 2 85 q -2 90 0 97 q 10 113 21 142 q 32 170 41 204 q 50 237 56 273 q 62 309 62 341 l 62 365 q 63 383 75 393 q 87 403 106 405 q 124 407 146 402 q 167 396 188 381 z"},")":{"x_min":0,"x_max":456,"ha":456,"o":"m 6 -210 q 37 -205 70 -166 q 103 -126 134 -64 q 164 -1 191 78 q 218 158 238 242 q 257 327 268 410 q 280 494 278 564 q 277 635 262 687 q 247 739 215 760 q 208 770 212 781 q 217 792 231 792 q 294 770 332 716 q 369 661 384 586 q 398 512 392 424 q 387 335 366 245 q 344 155 308 70 q 272 -15 226 -82 q 179 -150 124 -194 q 70 -237 11 -245 q -2 -239 -3 -228 q -4 -216 6 -210 z"},"&":{"x_min":0,"x_max":935,"ha":935,"o":"m 676 240 q 693 207 702 176 q 710 144 712 115 q 769 101 803 70 q 837 38 851 -1 q 865 -40 861 -82 q 857 -123 838 -158 q 819 -192 787 -214 q 755 -236 713 -237 q 664 -237 620 -218 q 575 -200 533 -166 q 477 -195 413 -210 q 349 -225 286 -221 q 190 -215 127 -178 q 64 -142 32 -87 q 0 -32 0 36 q 0 103 30 170 q 60 238 120 300 q 180 362 269 405 q 266 440 266 480 q 266 521 272 562 q 277 602 290 640 q 303 677 325 706 q 347 735 380 754 q 412 772 458 774 q 494 775 521 762 q 548 748 564 724 q 581 701 588 671 q 594 641 589 611 q 582 569 562 537 q 541 505 513 481 q 485 457 454 442 q 423 426 396 417 q 401 357 416 288 q 432 220 456 152 q 480 84 512 22 q 544 -41 582 -90 q 622 -56 648 -12 q 673 32 676 86 q 647 90 612 89 q 576 88 534 80 q 522 81 518 93 q 514 105 528 115 q 612 130 675 122 q 670 171 644 224 q 643 230 646 234 q 649 239 654 242 q 658 245 664 244 q 670 244 676 240 z m 277 347 q 220 302 186 244 q 151 185 138 124 q 124 63 133 6 q 142 -52 172 -96 q 202 -139 254 -163 q 306 -187 379 -180 q 443 -170 505 -140 q 459 -95 422 -36 q 384 22 355 86 q 326 151 306 218 q 287 284 277 347 z m 605 -117 q 630 -144 662 -166 q 694 -188 728 -189 q 755 -190 776 -174 q 798 -158 810 -132 q 823 -107 826 -76 q 828 -44 817 -14 q 806 16 780 41 q 755 66 712 78 q 707 18 678 -30 q 650 -79 605 -117 z m 503 730 q 478 734 460 720 q 443 707 430 682 q 418 658 410 627 q 403 596 399 564 q 395 532 394 503 q 393 474 394 455 q 414 464 439 478 q 464 492 488 512 q 511 532 530 558 q 548 584 554 619 q 559 652 546 684 q 534 716 503 730 z"},"_":{"x_min":0,"x_max":967,"ha":967,"o":"m 119 100 l 873 100 q 880 89 885 74 q 890 58 886 43 q 883 28 869 16 q 855 3 824 -1 l 74 -1 q 70 14 69 30 q 68 45 72 59 q 77 73 88 84 q 99 95 119 100 z"},"v":{"x_min":0,"x_max":409,"ha":409,"o":"m 163 347 q 160 338 150 311 q 141 284 130 250 q 120 215 111 178 q 102 140 100 108 q 98 77 105 57 q 112 37 133 37 q 147 38 166 54 q 185 69 206 93 q 226 117 246 148 q 265 178 281 210 q 245 248 237 301 q 233 333 242 354 q 251 376 266 386 q 280 396 298 396 q 316 395 330 383 q 343 371 350 348 q 357 326 350 292 q 346 275 340 257 q 334 239 326 220 q 345 207 372 200 q 398 194 433 198 q 440 197 444 192 q 447 187 448 181 q 448 175 446 170 q 443 164 437 162 q 396 157 364 164 q 333 172 310 187 q 298 164 278 132 q 259 100 234 71 q 209 42 180 21 q 151 0 121 0 q 108 0 90 2 q 71 5 52 16 q 33 27 18 50 q 2 73 -3 114 q -8 154 0 216 q 9 277 37 365 q 44 383 65 390 q 86 398 108 396 q 130 394 147 382 q 164 369 163 347 z m 298 246 q 311 277 315 300 q 321 330 314 345 q 307 360 297 360 q 287 360 278 346 q 270 333 273 306 q 275 289 281 274 q 287 259 298 246 z"},"O":{"x_min":0,"x_max":732,"ha":732,"o":"m 111 486 q 82 529 80 570 q 79 611 96 647 q 114 683 148 712 q 183 740 227 759 q 271 778 321 785 q 371 792 421 784 q 499 772 552 735 q 606 698 638 644 q 669 589 681 521 q 693 453 688 380 q 683 307 662 232 q 641 157 608 88 q 575 19 530 -40 q 486 -98 434 -138 q 381 -178 322 -196 q 263 -215 200 -203 q 115 -188 66 -144 q 18 -99 -3 -38 q -24 22 -22 94 q -19 165 -1 236 q 16 302 44 367 q 73 432 111 486 z m 318 547 q 273 519 229 455 q 268 433 307 434 q 346 434 378 452 q 409 470 429 504 q 449 537 451 581 q 457 594 470 592 q 484 589 487 579 q 484 521 458 480 q 433 440 394 419 q 354 398 304 397 q 255 396 205 416 q 179 371 158 318 q 136 266 123 211 q 116 183 111 147 q 106 111 105 72 q 104 33 110 -6 q 115 -44 129 -76 q 143 -109 167 -132 q 191 -156 227 -165 q 292 -179 354 -150 q 415 -122 468 -64 q 521 -7 562 72 q 603 150 626 236 q 650 321 654 406 q 657 491 635 562 q 613 633 562 682 q 512 730 427 743 q 384 750 338 739 q 293 728 256 702 q 219 677 195 640 q 171 602 170 556 q 185 570 200 580 q 215 591 231 596 q 246 607 268 608 q 290 608 306 600 q 323 593 329 579 q 335 565 318 547 z"},"(":{"x_min":0,"x_max":394,"ha":394,"o":"m 452 757 q 421 752 388 712 q 355 673 324 610 q 294 548 267 468 q 240 389 220 304 q 201 220 190 136 q 178 53 180 -18 q 181 -88 196 -140 q 211 -192 243 -213 q 250 -223 246 -234 q 241 -245 227 -245 q 164 -223 126 -168 q 89 -114 74 -40 q 60 35 66 124 q 71 212 92 302 q 114 392 150 477 q 186 562 232 630 q 279 697 334 740 q 388 784 447 792 q 460 786 461 774 q 462 763 452 757 z"},"C":{"x_min":0,"x_max":616,"ha":616,"o":"m 657 97 q 626 38 586 -20 q 545 -79 494 -124 q 442 -170 380 -198 q 318 -227 245 -226 q 163 -225 110 -182 q 57 -139 30 -68 q 3 2 0 92 q -2 181 17 274 q 36 368 74 458 q 113 548 169 619 q 225 690 296 734 q 368 779 452 782 q 526 784 572 758 q 619 733 640 694 q 661 655 658 610 q 654 565 627 529 q 600 493 550 474 q 501 454 431 465 q 424 468 422 473 q 419 478 420 484 q 420 489 424 494 q 429 498 436 500 q 492 491 532 506 q 572 520 594 547 q 617 574 621 608 q 625 642 611 672 q 597 703 564 724 q 531 744 479 744 q 423 744 371 704 q 319 665 276 600 q 232 535 198 452 q 165 369 146 282 q 126 196 122 113 q 119 30 136 -36 q 152 -101 190 -142 q 228 -182 292 -183 q 327 -184 362 -170 q 396 -156 428 -132 q 459 -109 488 -78 q 518 -48 543 -15 q 568 18 589 52 q 610 85 625 113 q 630 117 636 117 q 642 117 647 114 q 652 112 655 108 q 658 103 657 97 z"},"W":{"x_min":0,"x_max":1182,"ha":1182,"o":"m 169 362 q 174 378 184 412 q 194 447 204 489 q 214 531 220 576 q 226 620 222 656 q 219 693 202 716 q 186 740 151 740 q 127 740 105 726 q 83 711 67 688 q 51 665 42 636 q 33 607 36 579 q 39 551 56 526 q 74 501 109 486 q 115 482 116 476 q 117 469 115 464 q 113 458 108 454 q 102 451 95 453 q 52 472 30 503 q 7 534 2 570 q -3 606 6 642 q 16 679 38 709 q 59 739 89 758 q 119 776 155 776 q 221 776 260 754 q 298 732 317 696 q 336 659 338 612 q 340 564 333 514 q 326 465 313 417 q 300 369 289 330 q 258 222 232 130 q 205 37 191 -32 q 177 -102 180 -144 q 182 -185 210 -190 q 260 -182 308 -144 q 355 -107 398 -50 q 441 6 478 76 q 516 146 547 218 q 578 290 601 358 q 624 427 639 481 l 651 538 q 670 565 691 574 q 712 582 730 579 q 748 576 760 564 q 772 552 772 538 q 769 511 757 466 q 745 421 728 366 q 711 311 691 249 q 671 187 652 126 q 634 65 618 10 q 603 -46 595 -90 q 587 -133 588 -160 q 590 -186 605 -189 q 657 -192 708 -161 q 760 -130 809 -75 q 858 -20 903 54 q 948 128 987 210 q 1026 292 1058 378 q 1090 464 1112 544 q 1135 623 1147 690 q 1159 758 1158 804 q 1154 823 1167 836 q 1180 850 1200 854 q 1220 859 1242 853 q 1263 847 1276 828 q 1272 758 1254 676 q 1235 594 1205 507 q 1175 420 1134 332 q 1093 244 1044 163 q 996 82 942 12 q 887 -59 828 -112 q 770 -164 709 -194 q 648 -224 588 -225 q 551 -226 530 -207 q 510 -188 502 -155 q 493 -122 495 -78 q 497 -35 506 13 l 527 86 q 495 24 458 -31 q 421 -86 379 -128 q 337 -170 290 -196 q 244 -221 194 -223 q 156 -223 134 -202 q 111 -180 100 -144 q 90 -108 90 -62 q 90 -15 96 36 q 102 87 112 138 q 123 189 134 233 q 145 277 154 311 q 164 345 169 362 z"},"A":{"x_min":0,"x_max":911,"ha":911,"o":"m 380 508 q 383 574 406 626 q 430 677 470 712 q 510 748 564 765 q 619 782 685 779 q 761 775 802 746 q 844 717 861 672 q 878 627 876 571 q 873 515 862 456 q 850 398 834 341 q 819 284 810 239 l 980 248 q 993 242 994 231 q 994 220 983 212 l 803 203 q 792 143 791 86 q 790 28 806 -23 q 822 -74 860 -118 q 897 -161 963 -192 q 961 -199 960 -206 q 958 -212 956 -216 q 953 -221 948 -223 q 944 -225 935 -223 q 842 -205 786 -166 q 729 -126 701 -70 q 673 -15 669 53 q 665 121 676 196 l 469 185 q 456 145 440 100 q 424 55 403 10 q 382 -35 356 -76 q 329 -118 296 -149 q 262 -180 220 -198 q 179 -217 128 -215 q 72 -214 40 -183 q 9 -152 2 -106 q -5 -59 12 -5 q 30 49 73 96 q 116 144 184 177 q 253 210 348 215 q 362 256 378 306 q 395 355 416 407 q 437 459 462 510 q 488 560 520 604 q 551 647 590 680 q 628 713 674 729 q 689 734 695 722 q 701 711 705 701 q 676 687 652 656 q 627 624 606 581 q 584 538 566 488 q 547 439 532 390 q 516 342 504 298 q 491 253 481 221 l 682 232 q 687 263 702 312 q 716 362 730 418 q 744 474 754 531 q 763 588 759 634 q 755 681 734 711 q 713 741 665 744 q 611 747 566 729 q 521 711 488 678 q 456 646 438 602 q 419 557 416 506 q 413 501 408 498 q 403 496 398 496 q 392 496 387 499 q 382 502 380 508 z m 96 -173 q 124 -179 150 -162 q 177 -144 201 -113 q 225 -82 246 -41 q 266 0 284 40 q 301 81 314 118 q 327 155 335 178 q 271 176 220 153 q 168 130 130 96 q 91 61 68 20 q 46 -22 40 -60 q 35 -98 48 -129 q 62 -160 96 -173 z"},"f":{"x_min":0,"x_max":234,"ha":234,"o":"m 322 776 q 362 773 379 756 q 396 738 397 711 q 398 684 386 650 q 373 615 353 579 q 333 543 308 508 q 284 472 260 442 q 237 411 218 390 q 200 368 192 359 q 167 270 144 184 q 120 98 102 7 q 153 18 186 42 q 220 66 243 113 q 254 121 265 114 q 276 108 275 97 q 247 40 206 11 q 166 -18 106 -29 q 129 -49 146 -82 q 163 -115 172 -154 q 182 -192 182 -232 q 183 -271 173 -304 q 163 -336 141 -357 q 119 -378 84 -379 q 38 -379 12 -350 q -14 -320 -25 -270 q -36 -219 -34 -151 q -31 -83 -19 -5 q -7 73 12 156 q 31 239 54 320 q 79 410 108 493 q 138 576 171 640 q 204 703 242 740 q 280 777 322 776 z m 348 731 q 335 733 321 715 q 307 697 293 668 q 279 638 266 602 q 253 565 242 530 q 231 496 223 467 q 215 438 211 424 q 228 442 250 472 q 271 501 292 534 q 312 567 330 601 q 347 635 356 663 q 366 691 365 710 q 364 728 348 731 z m 90 -63 q 88 -76 84 -100 q 81 -125 78 -155 q 75 -185 74 -216 q 72 -248 74 -274 q 76 -299 83 -316 q 90 -332 104 -332 q 121 -332 130 -316 q 140 -300 143 -275 q 146 -250 144 -219 q 141 -188 134 -158 q 126 -128 115 -102 q 104 -77 90 -63 z"},"Q":{"x_min":0,"x_max":715,"ha":715,"o":"m 97 448 q 63 488 56 528 q 50 569 64 606 q 77 644 108 676 q 139 709 180 732 q 222 756 271 769 q 320 782 370 780 q 465 777 528 739 q 592 701 628 640 q 663 579 672 503 q 682 427 669 348 q 656 270 623 196 q 590 121 540 64 q 491 8 426 -25 q 362 -58 287 -53 q 218 -52 168 -29 q 119 -6 88 32 q 58 69 44 119 q 31 169 33 224 q 35 279 52 336 q 68 394 97 448 z m 296 532 q 275 517 255 491 q 235 465 218 431 q 259 414 298 418 q 336 423 365 445 q 394 467 410 502 q 427 538 424 582 q 428 596 441 595 q 454 594 459 584 q 463 526 442 483 q 422 440 385 414 q 348 389 299 382 q 250 375 198 389 q 182 352 171 310 q 160 267 158 224 q 155 181 162 140 q 168 100 186 68 q 203 36 234 14 q 264 -7 310 -13 q 371 -21 424 7 q 478 35 520 86 q 561 137 590 204 q 618 272 629 344 q 640 416 633 486 q 626 556 596 612 q 567 668 514 704 q 460 739 380 741 q 336 742 293 726 q 250 709 216 680 q 182 650 162 610 q 143 570 147 524 q 161 540 174 552 q 188 564 202 572 q 216 584 238 587 q 259 590 277 584 q 295 579 302 566 q 310 552 296 532 z m 1 -196 q 29 -132 69 -101 q 109 -70 157 -60 q 205 -51 258 -58 q 312 -66 366 -80 q 421 -93 474 -108 q 526 -122 573 -126 q 620 -131 658 -121 q 696 -111 721 -76 q 736 -66 746 -74 q 755 -83 752 -94 q 723 -156 683 -185 q 643 -214 595 -222 q 547 -230 494 -222 q 441 -214 387 -200 q 333 -186 281 -172 q 229 -158 182 -154 q 136 -151 98 -163 q 59 -175 33 -213 q 28 -218 22 -218 q 15 -219 10 -216 q 4 -214 1 -208 q -2 -203 1 -196 z"},"w":{"x_min":0,"x_max":628,"ha":628,"o":"m 382 347 q 379 338 370 311 q 360 284 350 250 q 339 215 330 178 q 321 140 319 108 q 317 77 324 57 q 331 37 352 37 q 366 38 385 54 q 404 69 424 93 q 444 117 464 148 q 484 178 500 210 q 482 229 470 252 q 459 275 456 301 q 452 333 461 354 q 470 376 484 386 q 499 396 517 396 q 535 395 548 383 q 562 371 569 348 q 576 326 569 292 q 565 275 558 257 q 552 239 544 220 q 564 207 590 200 q 617 194 652 198 q 659 197 662 192 q 666 187 666 181 q 667 175 664 170 q 662 164 656 162 q 615 157 584 164 q 552 172 528 187 q 516 164 496 132 q 477 100 452 71 q 428 42 399 21 q 370 0 339 0 q 329 0 314 2 q 300 3 284 9 q 268 15 254 28 q 239 40 229 63 q 211 34 187 17 q 163 0 121 0 q 108 0 90 2 q 71 5 52 16 q 33 27 18 50 q 2 73 -3 114 q -8 154 0 216 q 9 277 37 365 q 43 383 64 390 q 85 398 108 396 q 130 394 147 382 q 164 369 163 347 q 160 338 150 311 q 141 284 130 250 q 120 215 111 177 q 102 139 100 108 q 98 76 105 56 q 112 36 134 37 q 149 37 162 44 q 174 52 184 63 q 194 74 202 88 q 210 101 216 113 q 211 154 219 215 q 227 276 256 365 q 262 383 283 390 q 304 398 326 396 q 349 394 366 382 q 383 369 382 347 z m 516 246 q 528 274 534 300 q 540 330 533 345 q 526 360 516 360 q 505 360 496 346 q 488 333 492 306 q 494 289 500 274 q 506 259 516 246 z"},"-":{"x_min":0,"x_max":628,"ha":628,"o":"m 536 307 q 543 296 548 280 q 553 264 550 248 q 546 231 532 218 q 518 205 487 201 l 120 201 q 116 216 115 232 q 114 249 118 264 q 123 279 134 290 q 145 302 165 307 z"},"E":{"x_min":0,"x_max":575,"ha":575,"o":"m 616 97 q 585 38 544 -20 q 504 -79 452 -124 q 401 -170 339 -198 q 277 -227 204 -226 q 163 -226 125 -213 q 87 -200 58 -176 q 30 -151 14 -116 q -2 -81 0 -36 q 2 2 17 34 q 32 67 56 93 q 80 119 110 139 q 141 159 175 172 q 129 185 96 210 q 64 236 45 270 q 26 305 20 347 q 15 389 23 435 q 35 505 70 567 q 106 629 158 676 q 210 723 275 752 q 340 780 411 782 q 485 784 532 758 q 578 733 599 694 q 620 655 616 610 q 613 565 586 529 q 559 493 510 474 q 460 454 390 465 q 383 468 380 473 q 378 478 378 484 q 379 489 384 494 q 388 498 395 500 q 445 492 482 503 q 520 514 544 536 q 567 559 576 588 q 585 618 578 647 q 572 676 550 700 q 527 725 488 737 q 448 747 408 738 q 369 730 333 708 q 297 687 266 654 q 234 621 209 582 q 184 544 168 502 q 152 460 146 420 q 141 383 144 346 q 148 308 162 277 q 176 246 203 224 q 230 203 273 197 q 286 196 290 184 q 293 171 286 160 q 247 156 217 138 q 187 119 167 92 q 147 64 136 29 q 125 -6 125 -42 q 124 -70 133 -95 q 142 -120 158 -140 q 175 -159 198 -170 q 222 -182 251 -183 q 304 -184 354 -154 q 404 -123 448 -78 q 491 -33 526 19 q 561 71 584 113 q 595 122 606 115 q 618 108 616 97 z"},"s":{"x_min":0,"x_max":345,"ha":345,"o":"m 0 97 q -2 113 4 126 q 11 138 22 141 q 35 167 50 204 q 64 240 85 291 q 59 337 62 376 q 64 398 76 413 q 88 428 103 434 q 118 441 133 438 q 148 435 156 420 q 165 406 163 380 q 161 353 142 312 q 162 299 186 284 q 209 270 230 252 q 250 234 264 210 q 279 186 282 154 q 286 105 267 73 q 248 41 218 22 q 263 27 298 49 q 334 71 354 113 q 359 117 365 117 q 371 117 376 114 q 381 112 384 108 q 387 103 386 97 q 362 48 324 24 q 285 1 244 -8 q 202 -16 162 -14 q 121 -13 93 -11 q 75 -10 58 -4 q 41 3 28 16 q 15 29 7 49 q -1 69 0 97 z m 57 131 q 59 122 54 108 q 50 94 36 88 q 34 72 38 59 q 42 46 50 37 q 58 28 70 23 q 81 18 94 19 q 113 20 126 34 q 138 48 144 68 q 151 87 152 108 q 153 128 150 143 q 145 170 134 200 q 123 230 107 256 q 103 248 96 231 q 90 214 82 195 q 75 176 68 158 q 61 140 57 131 z"},">":{"x_min":0,"x_max":656,"ha":656,"o":"m 121 387 q 123 399 130 414 q 137 428 150 437 q 163 446 182 446 q 200 445 226 427 l 568 112 l 84 -125 q 69 -123 65 -112 q 61 -100 70 -92 l 441 93 z"},"l":{"x_min":0,"x_max":194,"ha":194,"o":"m 121 37 q 136 37 149 45 q 162 53 172 64 q 182 76 190 89 q 197 102 203 113 q 215 122 226 114 q 237 107 235 97 q 224 76 212 58 q 201 40 186 28 q 172 15 153 8 q 134 0 108 0 q 55 -1 28 32 q 1 66 -6 120 q -12 175 -1 246 q 10 316 32 389 q 54 462 85 532 q 116 602 150 656 q 185 711 219 744 q 253 777 282 776 q 322 773 339 756 q 356 738 357 711 q 358 684 346 650 q 333 615 313 579 q 293 543 268 508 q 244 472 220 442 q 197 411 178 390 q 160 368 152 359 q 148 343 139 313 q 130 283 120 247 q 111 211 103 174 q 95 136 93 106 q 91 75 97 56 q 103 36 121 37 z m 308 731 q 295 733 281 715 q 267 697 253 668 q 239 638 226 602 q 213 565 202 530 q 191 496 183 467 q 175 438 171 424 q 188 442 210 472 q 231 501 252 534 q 272 567 290 601 q 307 635 316 663 q 326 691 326 710 q 325 728 308 731 z"},"8":{"x_min":0,"x_max":697,"ha":697,"o":"m 447 351 q 539 276 580 198 q 622 120 622 48 q 623 -10 598 -60 q 574 -111 530 -148 q 485 -186 422 -207 q 359 -228 282 -227 q 186 -228 124 -199 q 61 -170 30 -122 q -1 -75 0 -15 q 1 45 33 106 q 65 167 128 222 q 190 278 282 316 q 240 343 200 376 q 159 408 131 448 q 103 487 92 534 q 81 581 98 637 q 109 676 134 705 q 160 734 196 753 q 232 772 276 780 q 321 788 370 784 q 442 778 492 753 q 543 728 572 691 q 600 654 607 608 q 614 563 598 517 q 583 471 545 428 q 507 384 447 351 z m 280 -191 q 338 -190 383 -171 q 428 -152 458 -120 q 487 -88 500 -46 q 512 -4 505 44 q 500 75 486 108 q 472 141 448 174 q 425 206 392 236 q 360 266 318 292 q 229 255 168 206 q 106 156 73 102 q 40 48 35 -4 q 30 -57 56 -98 q 81 -140 137 -166 q 193 -191 280 -191 z m 414 374 q 467 401 504 438 q 540 475 558 515 q 575 555 573 594 q 571 634 548 666 q 525 699 480 721 q 435 743 367 748 q 335 750 303 744 q 271 738 245 724 q 219 711 201 691 q 183 671 180 644 q 177 618 188 592 q 199 565 219 540 q 239 514 266 490 q 292 465 319 444 q 346 422 371 404 q 396 386 414 374 z"},"\\":{"x_min":0,"x_max":621,"ha":621,"o":"m 440 -217 l 55 749 q 62 759 75 769 q 88 779 103 782 q 118 785 135 776 q 152 767 167 740 l 550 -221 q 525 -241 495 -245 q 465 -249 440 -217 z"},"e":{"x_min":0,"x_max":281,"ha":281,"o":"m 113 155 q 113 130 116 108 q 119 86 127 70 q 135 53 148 44 q 161 35 180 37 q 195 38 212 44 q 229 51 244 62 q 259 72 271 85 q 283 98 290 113 q 302 122 313 114 q 324 107 322 97 q 276 5 172 0 q 98 -3 56 25 q 14 53 -1 98 q -16 142 -8 194 q 0 246 26 290 q 52 335 94 364 q 135 392 185 390 q 202 389 214 382 q 226 374 233 362 q 240 351 242 337 q 244 323 241 308 q 236 284 222 262 q 209 240 191 220 q 173 201 152 184 q 132 168 113 155 z m 203 311 q 205 318 206 330 q 208 342 197 343 q 183 344 170 332 q 158 321 148 301 q 137 281 129 256 q 121 230 117 202 q 147 225 168 252 q 190 278 203 311 z"},"b":{"x_min":0,"x_max":499,"ha":499,"o":"m 312 393 q 352 393 378 376 q 403 358 416 330 q 429 301 430 265 q 432 229 424 193 q 415 157 398 124 q 382 91 359 68 q 380 60 400 56 q 421 52 440 55 q 460 58 477 72 q 494 85 508 113 q 518 121 530 116 q 541 110 540 97 q 521 58 496 40 q 472 22 444 18 q 417 14 388 21 q 358 28 329 40 q 304 22 274 11 q 244 0 208 -1 q 166 -1 148 20 q 130 40 132 64 q 135 88 156 106 q 178 125 215 120 q 235 117 258 108 q 265 118 274 140 q 284 161 292 187 q 300 213 306 241 q 312 269 312 292 q 313 315 306 330 q 300 344 285 344 q 258 343 236 325 q 215 307 197 278 q 179 250 165 215 q 151 180 140 146 q 129 111 121 81 q 113 51 107 32 q 101 14 81 6 q 61 -2 40 0 q 19 2 3 14 q -13 25 -12 48 q -4 78 7 126 q 18 173 33 230 q 48 288 66 351 q 84 414 105 475 q 126 536 150 591 q 175 646 202 688 q 230 729 260 753 q 291 777 325 776 q 365 773 382 756 q 399 738 400 711 q 401 684 388 650 q 376 615 356 579 q 336 543 312 508 q 287 472 264 442 q 240 411 222 390 q 203 368 195 359 l 184 323 q 209 354 243 374 q 277 393 312 393 z m 350 731 q 337 733 323 715 q 309 697 296 668 q 282 638 269 602 q 256 565 245 530 q 234 496 226 467 q 217 438 213 424 q 230 442 252 472 q 273 501 294 534 q 315 567 332 601 q 350 635 360 663 q 369 691 368 710 q 367 728 350 731 z m 175 44 q 191 38 206 50 q 221 63 235 78 q 221 83 210 84 q 198 85 188 82 q 178 78 172 72 q 167 66 167 58 q 167 51 175 44 z"},"%":{"x_min":0,"x_max":785,"ha":785,"o":"m 149 790 q 157 782 164 776 q 170 769 175 761 q 191 761 221 758 q 251 755 286 750 q 322 746 360 742 q 398 737 430 736 q 461 736 482 740 q 504 743 508 755 q 534 767 556 761 q 578 755 579 717 q 555 659 526 586 q 496 514 464 434 q 431 354 398 270 q 364 187 332 107 q 299 27 270 -46 q 240 -119 216 -177 q 204 -193 190 -199 q 175 -205 161 -204 q 147 -204 132 -197 q 118 -190 106 -181 q 129 -124 158 -52 q 187 19 219 98 q 251 176 284 258 q 317 340 349 419 q 381 498 410 570 q 440 642 464 700 q 432 698 394 702 q 356 707 320 712 q 283 718 252 721 q 220 724 202 719 q 219 684 220 644 q 221 604 206 570 q 192 536 163 514 q 134 491 91 493 q 58 494 37 512 q 16 529 7 554 q -2 580 1 610 q 4 641 20 670 q 35 698 64 722 q 92 745 133 755 l 124 764 q 118 773 128 782 q 137 792 149 790 z m 541 79 q 585 79 612 56 q 638 34 648 0 q 657 -35 651 -75 q 645 -115 625 -150 q 605 -184 572 -208 q 540 -231 496 -232 q 450 -233 421 -210 q 392 -188 380 -154 q 367 -119 372 -78 q 376 -38 396 -3 q 417 32 453 56 q 489 79 541 79 z m 572 38 q 550 37 534 20 q 517 2 506 -23 q 495 -48 490 -78 q 486 -107 489 -132 q 492 -156 502 -173 q 511 -190 529 -190 q 560 -179 583 -146 q 606 -114 614 -78 q 622 -41 613 -8 q 604 25 572 38 z m 169 705 q 152 702 136 676 q 121 651 112 621 q 104 591 106 566 q 109 541 129 538 q 152 550 166 570 q 179 590 184 612 q 188 635 184 660 q 180 684 169 705 z"},"m":{"x_min":0,"x_max":766,"ha":766,"o":"m 561 360 q 532 358 508 340 q 484 321 464 298 q 445 274 432 250 q 418 226 411 213 q 394 153 381 110 q 368 66 364 52 q 359 23 338 8 q 318 -6 297 -6 q 276 -5 260 12 q 244 29 248 63 q 250 88 259 120 q 268 153 278 186 q 289 220 299 252 q 309 284 315 308 q 321 333 320 347 q 319 361 308 360 q 279 358 254 339 q 229 320 210 296 q 190 271 176 246 q 163 222 157 210 q 146 167 134 123 q 121 79 106 32 q 100 14 80 6 q 60 -2 39 0 q 18 2 2 14 q -14 25 -13 48 q -4 82 8 129 q 20 176 32 222 q 43 268 52 307 q 62 346 66 365 q 72 383 94 390 q 115 398 138 396 q 161 394 178 382 q 196 369 195 347 l 192 338 q 215 363 246 380 q 276 396 321 397 q 378 398 402 374 q 425 351 427 315 q 449 347 484 372 q 520 396 574 397 q 620 398 646 383 q 671 368 682 343 q 692 318 691 286 q 690 254 684 220 q 678 187 671 154 q 664 122 662 96 q 659 71 666 54 q 672 38 693 37 q 708 37 720 45 q 733 53 743 64 q 753 75 761 88 q 769 102 775 113 q 787 122 798 114 q 809 107 807 97 q 796 76 784 58 q 773 40 758 27 q 744 14 725 7 q 706 0 680 0 q 631 0 603 16 q 575 32 562 58 q 548 84 546 117 q 545 150 549 184 q 553 218 560 250 q 568 283 572 308 q 577 333 576 348 q 574 362 561 360 z"},"#":{"x_min":0,"x_max":1010,"ha":1010,"o":"m 403 -133 l 507 164 l 350 164 q 313 60 280 -36 q 246 -132 220 -208 q 205 -207 190 -203 q 175 -199 164 -190 q 152 -181 145 -167 q 138 -153 140 -133 l 244 163 q 195 163 146 162 q 97 162 48 162 q 43 177 42 192 q 41 208 46 222 q 50 235 61 246 q 72 257 92 263 l 279 264 l 328 402 q 268 402 211 402 q 154 401 98 401 q 93 416 92 432 q 91 447 96 460 q 100 474 111 485 q 122 496 142 502 l 363 503 l 454 762 q 466 765 482 764 q 499 764 512 756 q 526 748 532 730 q 539 713 533 682 l 470 503 l 626 504 l 717 762 q 729 765 746 764 q 762 764 776 756 q 789 748 796 730 q 802 713 796 682 l 733 505 l 933 506 q 940 495 945 480 q 950 464 947 448 q 944 433 930 420 q 915 408 884 404 q 839 404 792 404 q 745 403 697 403 q 685 369 674 335 q 662 301 649 266 l 842 267 q 849 256 854 240 q 859 225 856 210 q 853 194 838 182 q 824 169 793 165 q 747 165 702 164 q 658 164 613 164 q 576 60 542 -36 q 509 -132 483 -208 q 468 -207 453 -203 q 438 -199 426 -190 q 415 -181 408 -167 q 401 -153 403 -133 z m 386 264 l 542 265 l 591 403 l 434 403 z"},",":{"x_min":0,"x_max":246,"ha":246,"o":"m 113 119 q 126 118 136 112 q 147 105 154 94 q 161 84 164 72 q 166 59 163 47 q 157 21 144 -2 q 130 -26 115 -44 q 100 -61 88 -70 q 75 -80 70 -78 q 61 -74 66 -61 q 70 -48 77 -34 q 84 -19 89 -8 q 94 2 86 2 q 60 4 46 22 q 32 40 37 64 q 43 88 65 104 q 87 121 113 119 z"},"n":{"x_min":0,"x_max":497,"ha":497,"o":"m 308 360 q 279 358 254 339 q 229 320 210 296 q 190 271 176 246 q 163 222 157 210 q 146 167 134 123 q 121 79 106 32 q 100 14 80 6 q 60 -2 39 0 q 18 2 2 14 q -14 25 -13 48 q -4 82 8 129 q 20 176 32 222 q 43 268 52 307 q 62 346 66 365 q 72 383 94 390 q 115 398 138 396 q 161 394 178 382 q 196 369 195 347 l 192 338 q 215 363 246 380 q 276 396 321 397 q 367 398 392 382 q 417 367 427 342 q 437 316 435 284 q 433 251 426 217 q 419 183 410 150 q 402 118 398 92 q 395 67 400 52 q 404 36 424 37 q 439 37 452 45 q 464 53 474 64 q 484 75 492 88 q 500 102 506 113 q 511 117 517 118 q 523 118 528 116 q 533 113 536 108 q 539 103 538 97 q 527 76 516 58 q 504 40 490 27 q 475 14 456 7 q 437 0 411 0 q 362 1 334 17 q 307 33 294 59 q 282 85 282 118 q 282 151 288 185 q 294 219 302 251 q 311 283 317 308 q 323 333 322 348 q 321 362 308 360 z"},"h":{"x_min":0,"x_max":498,"ha":498,"o":"m 309 360 q 280 358 255 339 q 230 320 210 296 q 191 271 178 246 q 164 222 158 210 q 147 167 134 123 q 122 79 107 32 q 101 14 81 6 q 61 -2 40 0 q 19 2 3 14 q -13 25 -12 48 q -4 78 7 126 q 18 173 33 230 q 48 288 66 351 q 84 414 105 475 q 126 536 150 591 q 175 646 202 688 q 230 729 260 753 q 291 777 325 776 q 365 773 382 756 q 399 738 400 711 q 401 684 388 650 q 376 615 356 579 q 336 543 312 508 q 287 472 264 442 q 240 411 222 390 q 203 368 195 359 l 184 323 q 204 353 240 374 q 277 396 322 397 q 368 398 393 382 q 418 367 428 342 q 438 316 436 284 q 434 251 427 217 q 420 183 412 150 q 403 118 400 92 q 396 67 400 52 q 405 36 425 37 q 440 37 452 45 q 465 53 475 64 q 485 75 493 88 q 501 102 507 113 q 512 117 518 117 q 524 117 529 114 q 534 112 537 108 q 540 103 539 97 q 528 76 516 58 q 505 40 490 27 q 476 14 457 7 q 438 0 412 0 q 363 1 336 17 q 308 33 296 59 q 283 85 283 118 q 283 151 289 185 q 295 219 304 251 q 312 283 318 308 q 324 333 323 348 q 322 362 309 360 z m 350 731 q 337 733 323 715 q 309 697 296 668 q 282 638 269 602 q 256 565 245 530 q 234 496 226 467 q 217 438 213 424 q 230 442 252 472 q 273 501 294 534 q 315 567 332 601 q 350 635 360 663 q 369 691 368 710 q 367 728 350 731 z"},"z":{"x_min":0,"x_max":419,"ha":419,"o":"m 0 97 q 13 119 26 148 q 39 176 50 207 q 61 238 70 268 q 78 299 81 325 q 49 324 32 335 q 15 346 13 360 q 11 374 24 387 q 36 400 65 404 q 85 406 98 396 q 111 386 116 366 q 202 387 254 378 q 306 370 330 342 q 353 315 351 274 q 349 234 328 190 q 306 147 266 106 q 227 66 177 39 q 206 35 234 24 q 262 13 284 -8 q 335 9 370 38 q 405 67 428 113 q 432 117 438 118 q 444 118 449 115 q 454 112 457 108 q 460 103 460 97 q 434 44 398 13 q 361 -18 307 -38 q 327 -74 328 -114 q 330 -153 318 -191 q 305 -229 280 -263 q 255 -297 222 -323 q 189 -349 150 -364 q 112 -380 72 -380 q 34 -380 5 -368 q -24 -356 -43 -336 q -62 -317 -70 -292 q -78 -266 -75 -239 q -71 -197 -44 -164 q -17 -131 20 -106 q 57 -82 99 -66 q 141 -49 176 -39 q 160 -19 136 -8 q 113 4 87 3 q 82 14 82 26 q 82 37 97 45 q 116 55 140 84 q 164 112 184 147 q 205 182 217 220 q 229 257 224 285 q 220 313 196 326 q 171 340 117 329 q 115 300 107 268 q 99 235 87 202 q 75 169 61 138 q 47 107 33 82 q 28 78 22 77 q 15 76 10 78 q 4 80 1 85 q -2 90 0 97 z m 43 -340 q 84 -340 118 -312 q 153 -283 175 -241 q 197 -199 204 -152 q 210 -106 195 -71 q 164 -80 126 -94 q 88 -107 54 -127 q 19 -147 -6 -175 q -32 -203 -37 -240 q -42 -278 -20 -306 q 1 -335 43 -340 z m 80 361 q 79 365 74 367 q 70 369 66 369 q 61 369 57 368 q 53 366 53 364 q 56 362 64 361 q 72 360 80 361 z"},"B":{"x_min":0,"x_max":959,"ha":959,"o":"m 112 -173 q 162 -181 197 -152 q 232 -122 259 -68 q 286 -14 306 60 q 327 133 348 212 q 368 291 390 370 q 413 449 444 515 q 475 581 516 628 q 558 674 616 689 q 630 688 636 676 q 641 664 628 655 q 605 644 588 614 q 570 584 555 540 q 540 496 527 442 q 514 388 502 329 q 489 270 475 210 q 461 149 444 92 q 471 96 504 95 q 510 93 513 88 q 516 84 516 78 q 517 72 514 67 q 510 62 502 59 q 464 62 431 54 q 415 5 396 -36 q 376 -78 352 -109 l 340 -123 q 354 -151 381 -169 q 408 -187 447 -186 q 492 -185 536 -158 q 579 -130 616 -85 q 654 -40 684 16 q 714 73 731 131 q 748 189 750 244 q 752 298 734 339 q 716 380 676 402 q 637 423 571 416 q 570 420 568 426 q 567 432 566 438 q 565 443 567 448 q 569 452 576 454 q 612 464 638 489 q 664 514 678 546 q 693 577 694 612 q 696 646 683 674 q 670 702 641 720 q 612 739 566 739 q 542 739 516 732 q 489 725 464 712 q 439 700 418 682 q 397 665 384 645 q 361 610 358 570 q 354 529 374 492 q 375 487 372 482 q 369 476 364 473 q 359 470 353 470 q 347 470 342 475 q 318 521 322 572 q 326 622 354 665 q 390 720 450 748 q 509 775 574 777 q 675 780 736 746 q 797 713 814 662 q 830 612 800 556 q 769 499 687 456 q 775 445 820 394 q 864 343 872 271 q 880 199 856 118 q 832 36 782 -36 q 732 -108 660 -160 q 588 -211 501 -222 q 430 -231 384 -210 q 337 -188 314 -150 q 280 -182 238 -200 q 195 -217 144 -215 q 91 -214 56 -182 q 22 -151 8 -104 q -5 -56 4 -1 q 12 54 46 101 q 79 148 139 180 q 199 211 287 211 q 294 211 298 206 q 302 200 302 194 q 302 187 298 182 q 295 176 287 175 q 220 177 172 156 q 124 135 92 100 q 61 66 48 24 q 34 -18 36 -58 q 39 -97 58 -128 q 77 -160 112 -173 z"},"K":{"x_min":0,"x_max":827,"ha":827,"o":"m 413 740 q 386 741 364 727 q 341 713 326 690 q 312 667 306 638 q 300 609 306 580 q 311 551 330 526 q 350 501 385 486 q 391 482 392 476 q 394 469 392 464 q 389 458 384 454 q 378 451 371 453 q 326 472 302 504 q 278 535 270 571 q 263 607 270 644 q 278 680 297 710 q 316 739 344 758 q 373 776 407 776 q 482 779 518 742 q 555 704 564 640 q 572 576 557 492 q 542 409 514 319 q 592 350 650 394 q 707 437 748 492 q 789 548 816 616 q 843 684 860 766 q 865 779 885 785 q 905 791 926 787 q 948 783 964 768 q 979 752 976 722 q 941 615 896 544 q 850 472 798 424 q 746 377 690 349 q 633 321 576 301 q 619 290 644 263 q 670 236 684 200 q 698 163 704 120 q 709 78 714 34 q 718 -9 724 -49 q 729 -89 743 -120 q 757 -151 782 -170 q 808 -189 851 -190 q 862 -196 862 -208 q 862 -221 851 -226 q 767 -227 716 -208 q 665 -190 637 -158 q 609 -126 598 -84 q 588 -42 585 2 q 582 47 583 90 q 584 134 578 170 q 571 207 553 232 q 535 257 496 264 q 481 220 464 168 q 447 116 426 62 q 405 9 379 -42 q 353 -92 318 -132 q 284 -171 240 -197 q 197 -223 142 -227 q 89 -226 55 -194 q 21 -161 8 -112 q -5 -63 4 -6 q 13 50 47 98 q 81 147 141 179 q 201 211 289 211 q 296 211 300 206 q 304 200 304 194 q 305 187 301 182 q 297 176 289 175 q 222 177 174 155 q 125 133 94 98 q 62 62 48 18 q 33 -26 36 -66 q 38 -107 56 -140 q 75 -172 110 -185 q 139 -190 170 -156 q 202 -121 234 -60 q 265 0 296 80 q 328 159 357 243 q 378 303 397 362 q 416 421 430 475 q 445 529 453 576 q 461 622 460 657 q 459 692 448 714 q 437 736 413 740 z"},"R":{"x_min":0,"x_max":943,"ha":943,"o":"m 572 157 q 533 162 516 181 q 498 200 498 222 q 498 245 514 267 q 530 289 560 300 q 589 310 630 304 q 671 299 720 268 q 770 308 801 359 q 832 410 844 464 q 857 517 851 568 q 845 620 820 660 q 795 700 752 724 q 708 749 645 749 q 599 749 554 738 q 509 726 470 705 q 431 684 400 655 q 370 626 354 590 q 337 553 338 510 q 339 467 362 420 q 365 407 354 401 q 342 395 331 402 q 303 456 301 506 q 299 555 316 598 q 334 640 368 674 q 401 708 445 732 q 489 757 540 770 q 591 784 644 784 q 747 785 818 755 q 888 725 928 676 q 967 627 976 565 q 984 503 964 440 q 943 377 895 318 q 847 259 773 217 q 799 181 812 136 q 825 92 834 46 q 842 1 850 -42 q 859 -84 876 -117 q 894 -150 924 -170 q 955 -189 1008 -187 q 1022 -190 1022 -204 q 1023 -218 1010 -223 q 922 -232 868 -216 q 813 -201 782 -170 q 751 -138 738 -94 q 724 -50 717 -2 q 710 45 706 92 q 701 140 687 178 q 660 169 630 162 q 601 154 572 157 z m 112 -184 q 162 -192 197 -162 q 232 -133 259 -79 q 286 -25 306 48 q 327 122 348 201 q 368 280 390 359 q 413 438 444 504 q 475 570 516 616 q 558 663 616 678 q 630 678 636 666 q 641 653 628 644 q 599 630 578 584 q 557 539 539 475 q 521 411 505 334 q 489 257 470 180 q 462 145 451 104 q 440 64 426 24 q 411 -17 392 -54 q 374 -92 352 -120 q 313 -171 262 -200 q 211 -228 144 -226 q 91 -225 56 -193 q 22 -161 8 -114 q -5 -66 4 -12 q 12 43 46 90 q 79 137 139 168 q 199 200 287 200 q 294 200 298 194 q 302 189 302 182 q 302 176 298 170 q 295 165 287 164 q 220 166 172 145 q 124 124 92 90 q 61 55 48 13 q 34 -29 36 -68 q 39 -108 58 -140 q 77 -171 112 -184 z m 659 228 q 638 253 617 262 q 596 270 578 268 q 561 267 548 258 q 536 249 533 238 q 530 227 538 218 q 546 209 569 206 q 594 204 616 210 q 637 217 659 228 z"},"T":{"x_min":0,"x_max":567,"ha":567,"o":"m 111 -186 q 161 -194 196 -165 q 231 -136 257 -82 q 283 -29 302 43 q 322 115 342 193 q 361 271 383 349 q 405 427 436 492 q 466 557 507 603 q 548 649 606 664 q 620 664 626 652 q 631 639 618 631 q 587 616 566 570 q 546 525 530 462 q 513 398 498 322 q 484 245 466 168 q 447 90 422 18 q 397 -54 360 -110 q 322 -165 269 -198 q 216 -230 143 -228 q 90 -227 56 -194 q 21 -162 8 -113 q -5 -64 4 -8 q 13 49 47 98 q 81 146 140 178 q 200 211 288 211 q 295 211 299 206 q 303 200 304 194 q 304 187 300 182 q 296 176 288 175 q 221 177 172 155 q 124 133 93 97 q 62 61 48 18 q 33 -26 36 -67 q 38 -108 57 -140 q 76 -173 111 -186 z m 993 810 q 996 811 1002 810 q 1007 810 1012 808 q 1018 805 1022 800 q 1025 796 1024 791 q 1002 738 959 711 q 916 684 860 674 q 804 664 740 666 q 676 667 612 670 q 547 673 487 673 q 427 673 380 660 q 332 647 302 616 q 271 584 266 525 q 263 521 258 518 q 253 515 248 514 q 242 514 237 516 q 232 519 230 527 q 233 612 266 664 q 298 717 350 745 q 401 773 466 782 q 531 791 600 790 q 668 789 735 783 q 802 777 856 774 q 910 772 947 778 q 984 785 993 810 z"},"P":{"x_min":0,"x_max":958,"ha":958,"o":"m 112 -184 q 162 -192 197 -162 q 232 -133 259 -79 q 286 -25 306 48 q 327 122 348 201 q 368 280 390 359 q 413 438 444 504 q 475 570 516 616 q 558 663 616 678 q 630 678 636 666 q 641 653 628 644 q 599 630 578 584 q 557 539 539 475 q 521 411 505 334 q 489 257 470 180 q 553 183 618 209 q 683 235 730 276 q 777 316 806 367 q 835 418 846 471 q 857 524 850 574 q 843 624 818 663 q 793 702 750 726 q 706 749 645 749 q 599 749 554 738 q 509 726 470 705 q 431 684 400 655 q 370 626 354 590 q 337 553 338 510 q 339 467 362 420 q 365 407 354 401 q 342 395 331 402 q 303 456 301 506 q 299 555 316 598 q 334 640 368 674 q 401 708 445 732 q 489 757 540 770 q 591 784 644 784 q 743 785 812 758 q 880 730 920 684 q 960 639 972 580 q 984 522 970 462 q 955 401 915 343 q 875 285 810 240 q 746 195 658 168 q 571 142 461 144 q 441 65 415 -4 q 389 -73 352 -120 q 313 -171 262 -200 q 211 -228 144 -226 q 91 -225 56 -193 q 22 -161 8 -114 q -5 -66 4 -12 q 12 43 46 90 q 79 137 139 168 q 199 200 287 200 q 294 200 298 194 q 302 189 302 182 q 302 176 298 170 q 295 165 287 164 q 220 166 172 145 q 124 124 92 90 q 61 55 48 13 q 34 -29 36 -68 q 39 -108 58 -140 q 77 -171 112 -184 z"},"|":{"x_min":0,"x_max":364,"ha":364,"o":"m 54 -202 q 64 -140 76 -60 q 89 19 102 106 q 116 194 130 286 q 144 379 158 466 q 171 554 184 634 q 196 713 206 775 q 218 780 234 782 q 250 784 264 778 q 278 773 288 757 q 298 741 297 710 q 287 648 275 570 q 263 491 250 404 q 236 316 222 224 q 207 132 194 44 q 180 -43 168 -122 q 156 -200 146 -262 q 131 -264 116 -262 q 100 -261 87 -254 q 74 -247 65 -234 q 56 -222 54 -202 z"},"t":{"x_min":0,"x_max":205,"ha":205,"o":"m 233 590 q 224 564 210 518 q 195 471 178 415 q 195 419 207 425 q 219 431 222 441 q 227 439 234 436 q 241 434 246 430 q 250 427 250 422 q 250 417 243 410 q 231 398 211 390 q 191 383 167 378 q 150 318 133 258 q 116 197 108 148 q 99 100 103 69 q 107 38 132 37 q 147 37 160 45 q 172 53 182 64 q 192 75 200 88 q 208 102 214 113 q 226 122 237 114 q 248 107 246 97 q 235 76 224 58 q 212 40 198 27 q 183 14 164 7 q 145 0 119 0 q 75 0 49 17 q 23 34 10 63 q -2 92 -4 130 q -5 167 0 208 q 6 250 16 292 q 27 333 38 370 q 16 370 -2 370 q -21 371 -33 372 q -33 388 -33 398 q -33 408 -13 407 q -1 406 14 406 q 30 406 47 406 q 60 458 75 508 q 90 558 107 604 q 116 624 137 631 q 158 638 180 635 q 201 632 217 620 q 233 608 233 590 z"},"M":{"x_min":0,"x_max":1153,"ha":1153,"o":"m 413 740 q 386 741 364 727 q 342 713 327 690 q 312 667 306 638 q 300 609 306 580 q 312 551 331 526 q 350 501 385 486 q 391 482 392 476 q 394 469 392 464 q 389 458 384 454 q 378 451 371 453 q 326 472 302 504 q 278 535 270 571 q 263 607 270 644 q 278 680 297 710 q 316 739 344 758 q 373 776 407 776 q 464 778 498 756 q 533 735 550 696 q 566 657 566 604 q 567 550 556 488 q 546 426 526 358 q 506 289 481 221 q 475 205 470 190 q 464 175 459 159 q 495 228 530 300 q 564 372 598 440 q 631 508 663 568 q 695 629 726 674 q 757 719 786 746 q 816 772 844 773 q 874 774 886 751 q 899 728 900 692 q 901 655 893 610 q 885 565 874 522 q 864 479 852 443 q 841 407 835 388 q 859 429 886 474 q 912 519 940 562 q 967 605 994 644 q 1022 682 1046 712 q 1071 741 1093 758 q 1115 776 1131 776 q 1159 777 1172 756 q 1186 736 1188 701 q 1190 666 1183 620 q 1176 573 1164 522 q 1151 472 1136 421 q 1120 370 1105 324 q 1090 279 1078 244 q 1066 208 1060 188 q 1053 166 1042 132 q 1032 98 1023 59 q 1014 20 1008 -20 q 1002 -61 1006 -96 q 1009 -131 1024 -156 q 1038 -182 1070 -192 q 1079 -199 1078 -212 q 1076 -225 1062 -227 q 997 -218 960 -193 q 922 -168 904 -132 q 887 -96 886 -52 q 885 -9 893 38 q 901 85 914 132 q 928 178 940 220 q 950 253 968 306 q 987 358 1008 416 q 1028 473 1048 529 q 1067 585 1078 626 q 1089 668 1088 688 q 1088 707 1070 691 q 1027 639 988 578 q 948 517 912 452 q 875 387 840 322 q 805 257 771 198 q 760 183 737 178 q 714 174 694 180 q 673 185 661 202 q 649 218 659 246 q 670 278 686 326 q 703 374 720 426 q 738 478 754 528 q 769 579 778 618 q 788 656 790 677 q 791 698 779 690 q 741 644 706 584 q 672 525 638 458 q 604 390 570 317 q 535 244 499 172 q 463 99 424 28 q 385 -42 341 -104 q 305 -157 258 -190 q 211 -222 142 -227 q 88 -226 54 -194 q 20 -161 7 -112 q -6 -63 4 -6 q 14 50 48 98 q 82 147 142 179 q 202 211 289 211 q 296 211 300 206 q 304 200 304 194 q 305 187 301 182 q 297 176 289 175 q 222 177 174 155 q 125 133 94 98 q 62 62 48 18 q 33 -26 36 -66 q 38 -107 57 -140 q 76 -172 111 -185 q 140 -190 171 -156 q 202 -121 234 -60 q 265 0 296 80 q 328 159 357 243 q 378 303 397 362 q 416 421 430 475 q 445 529 453 576 q 461 622 460 657 q 459 692 448 714 q 437 736 413 740 z"},"g":{"x_min":0,"x_max":468,"ha":468,"o":"m 509 97 q 482 39 433 6 q 384 -26 314 -50 q 307 -71 296 -104 q 285 -136 270 -173 q 255 -210 236 -246 q 216 -283 192 -313 q 168 -343 139 -362 q 110 -380 75 -380 q 47 -380 28 -368 q 10 -355 2 -334 q -7 -314 -6 -287 q -4 -260 8 -231 q 28 -180 73 -131 q 118 -82 187 -52 q 203 -2 216 47 q 195 26 170 14 q 146 1 118 1 q 67 1 38 30 q 8 59 -2 103 q -11 147 -2 198 q 7 248 32 291 q 56 334 96 362 q 135 390 186 388 q 227 386 252 366 q 276 346 287 314 l 300 364 q 307 382 327 390 q 347 398 368 396 q 390 394 406 382 q 423 370 422 348 q 416 325 408 288 q 399 250 387 203 q 375 156 360 102 q 345 49 328 -6 q 378 14 417 42 q 456 70 477 113 q 490 122 500 114 q 511 107 509 97 z m 159 46 q 179 54 198 76 q 217 98 232 128 q 246 158 254 192 q 263 225 263 256 q 263 286 253 310 q 243 334 220 344 q 198 351 178 330 q 159 308 146 272 q 132 237 124 194 q 116 152 116 116 q 117 81 127 60 q 137 39 159 46 z m 174 -96 q 123 -122 90 -162 q 57 -203 43 -241 q 40 -250 37 -264 q 34 -279 34 -294 q 35 -309 40 -321 q 45 -333 59 -335 q 70 -337 84 -318 q 97 -300 112 -268 q 127 -235 142 -190 q 158 -146 174 -96 z"},"j":{"x_min":0,"x_max":238,"ha":238,"o":"m 279 97 q 250 37 202 6 q 154 -26 84 -50 q 77 -71 66 -104 q 55 -136 40 -173 q 25 -210 6 -246 q -14 -283 -38 -313 q -62 -343 -91 -362 q -120 -380 -155 -380 q -183 -380 -202 -368 q -220 -355 -228 -334 q -236 -314 -234 -287 q -233 -260 -222 -231 q -202 -180 -156 -131 q -111 -82 -42 -52 q -22 15 -4 84 q 15 152 30 210 q 45 268 56 310 q 67 351 71 364 q 77 382 97 390 q 117 398 138 396 q 160 394 176 382 q 193 370 192 348 q 186 325 178 288 q 169 250 157 203 q 145 156 130 102 q 116 49 98 -6 q 148 14 188 42 q 227 71 247 113 q 260 122 270 114 q 281 107 279 97 z m -56 -96 q -107 -122 -140 -162 q -173 -203 -187 -241 q -190 -250 -193 -264 q -196 -279 -196 -294 q -195 -309 -190 -321 q -185 -333 -171 -335 q -160 -337 -146 -318 q -133 -300 -118 -268 q -103 -235 -88 -190 q -72 -146 -56 -96 z m 164 541 q 185 541 198 526 q 211 512 208 492 q 205 472 188 458 q 171 443 150 443 q 129 443 116 458 q 103 472 106 492 q 108 512 125 526 q 142 541 164 541 z"},"i":{"x_min":0,"x_max":207,"ha":207,"o":"m 164 347 q 160 338 150 311 q 141 284 130 250 q 120 215 111 177 q 102 139 100 108 q 98 76 105 56 q 112 36 134 37 q 149 37 162 45 q 174 53 184 64 q 194 75 202 88 q 210 102 216 113 q 221 117 227 117 q 233 117 238 114 q 243 112 246 108 q 249 103 248 97 q 237 76 226 58 q 214 40 200 27 q 185 14 166 7 q 147 0 121 0 q 108 0 90 2 q 71 5 52 16 q 33 27 18 50 q 2 73 -3 114 q -8 154 0 216 q 9 277 37 365 q 44 383 65 390 q 86 398 108 396 q 130 394 148 382 q 165 369 164 347 z m 142 541 q 163 541 176 526 q 189 512 186 492 q 183 472 166 458 q 150 443 128 443 q 107 443 94 458 q 81 472 84 492 q 86 512 103 526 q 120 541 142 541 z"},"y":{"x_min":0,"x_max":477,"ha":477,"o":"m 518 97 q 503 65 484 44 q 466 22 442 6 q 419 -11 389 -24 q 359 -36 322 -50 q 315 -71 304 -104 q 293 -136 278 -173 q 264 -210 244 -246 q 225 -283 201 -313 q 177 -343 148 -362 q 119 -380 84 -380 q 56 -380 38 -368 q 19 -355 10 -334 q 2 -314 4 -287 q 5 -260 17 -231 q 37 -180 82 -131 q 127 -82 196 -52 q 204 -26 212 1 q 219 28 227 55 q 204 30 176 15 q 148 0 121 0 q 108 0 90 2 q 71 5 52 16 q 33 27 18 50 q 2 73 -3 114 q -8 154 0 216 q 9 277 37 365 q 43 383 64 390 q 85 398 108 396 q 130 394 147 382 q 164 369 163 347 q 160 338 150 311 q 141 284 130 250 q 120 215 111 177 q 102 139 100 108 q 98 76 105 56 q 112 36 134 37 q 161 40 183 61 q 205 82 224 113 q 242 144 256 181 q 270 218 280 253 q 291 288 298 318 q 305 347 309 364 q 315 382 336 390 q 356 398 377 396 q 398 394 414 382 q 431 370 430 348 q 424 325 416 288 q 407 250 395 203 q 383 156 368 102 q 354 49 337 -6 q 362 4 383 14 q 404 23 422 36 q 440 48 456 66 q 471 84 486 113 q 499 122 510 114 q 520 107 518 97 z m 183 -96 q 132 -122 99 -162 q 66 -203 52 -241 q 49 -250 46 -264 q 43 -279 43 -294 q 43 -309 48 -321 q 54 -333 67 -335 q 78 -337 92 -318 q 105 -300 120 -268 q 135 -235 151 -190 q 167 -146 183 -96 z"},"@":{"x_min":0,"x_max":1053,"ha":1053,"o":"m 716 721 q 634 735 562 717 q 490 699 430 658 q 370 617 323 557 q 276 497 245 428 q 214 358 199 284 q 184 209 188 138 q 191 68 214 6 q 238 -56 284 -100 q 329 -145 398 -168 q 466 -190 559 -181 q 631 -168 690 -136 q 748 -103 792 -54 q 835 -6 862 56 q 890 118 900 190 q 910 203 922 199 q 934 195 936 185 q 922 90 881 12 q 840 -65 777 -119 q 714 -173 631 -200 q 548 -228 451 -223 q 324 -218 238 -171 q 152 -124 104 -52 q 55 21 42 112 q 29 202 48 295 q 66 388 116 476 q 165 564 240 631 q 316 698 416 736 q 516 774 637 768 q 721 764 788 738 q 854 712 898 666 q 942 619 962 552 q 981 486 971 401 q 964 344 943 290 q 922 235 890 193 q 857 151 814 127 q 771 103 719 107 q 707 108 689 112 q 671 115 654 126 q 636 138 622 160 q 608 182 605 220 q 578 178 540 151 q 502 124 458 127 q 407 131 380 162 q 353 193 346 238 q 340 282 352 332 q 365 382 392 423 q 420 464 462 489 q 503 514 554 508 q 592 503 614 484 q 636 464 646 434 l 662 477 q 670 494 692 500 q 713 507 735 503 q 757 499 774 486 q 790 472 787 450 q 783 441 772 415 q 760 389 747 355 q 734 321 722 284 q 711 247 706 216 q 702 185 708 164 q 714 143 735 142 q 769 140 801 162 q 833 185 860 222 q 886 259 904 306 q 922 354 930 404 q 939 464 930 516 q 922 569 895 611 q 868 653 823 682 q 778 710 716 721 z m 502 169 q 523 175 544 196 q 564 217 580 246 q 597 274 608 307 q 619 340 621 370 q 623 401 615 426 q 607 450 585 462 q 563 470 542 450 q 521 430 504 396 q 488 361 478 320 q 467 278 465 242 q 463 207 472 185 q 480 163 502 169 z"},".":{"x_min":0,"x_max":237,"ha":237,"o":"m 127 120 q 153 120 168 102 q 184 85 179 60 q 175 36 154 18 q 133 1 107 1 q 81 1 66 18 q 50 36 55 60 q 59 85 80 102 q 101 120 127 120 z"},"p":{"x_min":0,"x_max":510,"ha":510,"o":"m 177 293 q 207 334 245 364 q 283 394 329 396 q 369 398 394 380 q 418 363 430 334 q 442 305 442 268 q 443 232 434 195 q 426 158 410 124 q 393 91 370 68 q 391 60 412 56 q 433 52 452 55 q 471 58 488 72 q 505 85 519 113 q 529 121 540 116 q 552 110 551 97 q 533 59 508 41 q 484 23 456 19 q 428 15 398 22 q 369 28 340 40 q 315 22 285 11 q 255 0 219 -1 q 177 -1 159 20 q 141 40 144 64 q 146 88 168 106 q 189 125 226 120 q 248 117 270 108 q 277 118 286 140 q 296 161 304 187 q 312 213 318 241 q 324 269 324 292 q 324 315 318 330 q 312 344 296 344 q 270 343 246 320 q 221 296 200 264 q 180 233 165 202 q 150 170 144 155 q 129 99 111 38 q 93 -24 72 -84 q 50 -144 25 -198 q 0 -252 -28 -293 q -55 -334 -85 -358 q -115 -381 -148 -380 q -186 -377 -202 -360 q -219 -343 -220 -316 q -220 -288 -208 -254 q -195 -220 -176 -184 q -156 -147 -132 -111 q -108 -75 -86 -45 q -63 -15 -44 7 q -26 29 -18 38 q -5 75 6 116 q 16 156 26 198 q 36 240 46 282 q 57 324 70 364 q 76 382 96 390 q 116 398 138 396 q 159 394 176 382 q 192 370 191 348 z m -172 -335 q -160 -337 -146 -319 q -133 -301 -120 -272 q -106 -242 -92 -206 q -79 -169 -68 -134 q -57 -100 -49 -71 q -41 -42 -37 -28 q -54 -46 -75 -76 q -96 -105 -116 -138 q -136 -171 -153 -205 q -170 -239 -180 -267 q -189 -295 -188 -314 q -187 -333 -172 -335 z m 186 44 q 203 38 218 50 q 233 63 247 78 q 234 82 221 84 q 210 85 200 82 q 190 78 184 72 q 179 66 178 58 q 178 51 186 44 z"},"X":{"x_min":0,"x_max":807,"ha":807,"o":"m 885 783 q 876 745 856 686 q 835 628 805 558 q 775 487 736 408 q 697 330 652 251 q 680 161 715 78 q 750 -5 802 -67 q 855 -129 930 -162 q 1006 -196 1114 -185 q 1119 -185 1123 -189 q 1127 -193 1128 -199 q 1130 -205 1128 -211 q 1127 -217 1120 -221 q 998 -235 908 -214 q 817 -192 752 -145 q 686 -98 642 -31 q 597 36 566 113 q 519 45 469 -15 q 419 -75 366 -120 q 313 -166 258 -194 q 204 -221 149 -225 q 96 -228 62 -204 q 28 -179 12 -141 q -3 -103 1 -58 q 5 -12 28 27 q 52 66 96 92 q 140 117 205 116 q 212 113 215 108 q 218 103 218 98 q 218 92 215 87 q 212 82 205 80 q 155 81 120 62 q 85 42 65 12 q 45 -17 39 -52 q 33 -86 42 -116 q 51 -145 74 -164 q 98 -184 135 -183 q 185 -182 236 -149 q 288 -116 338 -62 q 389 -7 437 66 q 485 138 528 218 q 509 279 494 340 q 478 402 463 458 q 448 515 432 564 q 416 614 395 652 q 374 689 346 712 q 319 736 282 740 q 252 743 226 730 q 200 717 182 694 q 163 670 154 640 q 144 611 147 582 q 150 552 167 526 q 184 501 219 486 q 225 482 226 476 q 228 469 226 464 q 223 458 218 454 q 212 451 205 453 q 164 471 142 502 q 119 532 112 568 q 106 604 115 641 q 124 678 146 708 q 169 739 204 758 q 240 778 286 780 q 358 783 409 752 q 460 720 497 666 q 534 612 560 540 q 587 468 611 389 q 639 453 663 515 q 687 577 705 633 q 723 689 734 736 q 745 783 749 818 q 760 840 784 844 q 807 849 830 842 q 854 835 871 819 q 888 803 885 783 z"},"*":{"x_min":0,"x_max":393,"ha":393,"o":"m 49 678 l 132 678 l 93 764 q 93 772 100 782 q 107 791 118 796 q 128 801 141 798 q 154 794 166 776 l 196 712 l 250 785 q 257 789 269 788 q 281 786 290 779 q 300 772 304 759 q 307 746 297 727 l 261 678 l 341 678 q 348 674 354 664 q 360 653 360 641 q 360 629 352 619 q 343 609 322 606 l 245 606 l 287 516 q 284 507 276 499 q 268 491 258 487 q 248 483 236 485 q 225 487 215 499 l 182 570 l 127 495 q 117 494 106 497 q 96 500 88 507 q 79 514 76 524 q 73 535 78 550 l 119 606 l 34 606 q 27 613 23 624 q 19 634 20 644 q 20 655 27 664 q 34 673 49 678 z"},"Y":{"x_min":0,"x_max":728,"ha":728,"o":"m 582 5 q 616 10 640 20 q 665 29 683 43 q 701 57 714 74 q 726 92 737 113 q 748 121 759 114 q 770 108 769 97 q 758 76 746 56 q 733 36 711 18 q 689 1 655 -12 q 621 -25 567 -32 q 543 -90 510 -150 q 477 -209 433 -258 q 389 -306 333 -336 q 277 -367 206 -367 q 157 -367 124 -348 q 90 -330 74 -300 q 58 -271 60 -234 q 62 -197 85 -160 q 108 -124 154 -92 q 199 -60 268 -40 q 315 -27 360 -20 q 406 -12 443 -8 q 464 38 480 90 q 497 143 511 192 q 477 140 446 105 q 414 70 383 48 q 352 26 320 15 q 287 4 252 1 q 193 -5 162 12 q 130 30 118 64 q 106 97 110 144 q 115 191 128 244 q 142 298 160 356 q 179 413 196 468 q 212 524 223 573 q 234 622 232 659 q 230 696 212 718 q 193 740 151 740 q 127 740 105 726 q 83 711 67 688 q 51 665 42 636 q 33 607 36 579 q 39 551 56 526 q 74 501 109 486 q 115 482 116 476 q 117 469 115 464 q 113 458 108 454 q 102 451 95 453 q 52 472 30 503 q 7 534 2 570 q -3 606 6 642 q 16 679 38 709 q 59 739 89 758 q 119 776 155 776 q 239 776 280 744 q 322 712 334 659 q 346 606 336 538 q 325 471 304 400 q 284 330 260 263 q 237 196 224 144 q 210 92 214 61 q 217 30 251 32 q 283 34 318 48 q 352 63 389 95 q 426 127 465 178 q 504 230 544 305 q 561 358 576 404 q 590 449 604 493 q 618 537 632 582 q 647 627 665 680 q 678 709 700 720 q 721 730 741 727 q 761 724 776 710 q 790 696 790 677 q 771 619 746 538 q 721 458 694 368 q 666 277 638 183 q 609 89 582 5 z m 169 -319 q 197 -321 224 -308 q 251 -294 276 -271 q 301 -248 324 -218 q 347 -189 366 -158 q 385 -127 400 -98 q 416 -68 426 -46 q 395 -50 354 -57 q 313 -64 271 -77 q 223 -91 188 -114 q 153 -137 131 -164 q 109 -190 100 -217 q 92 -244 96 -266 q 101 -288 120 -302 q 138 -317 169 -319 z"},"c":{"x_min":0,"x_max":281,"ha":281,"o":"m 194 296 q 197 299 200 306 q 204 314 206 322 q 207 330 206 336 q 204 343 197 343 q 177 344 160 321 q 143 298 132 264 q 120 229 116 188 q 111 148 116 114 q 120 79 136 57 q 151 35 180 37 q 211 39 241 57 q 271 75 290 113 q 302 122 313 114 q 324 107 322 97 q 302 54 262 28 q 223 2 172 0 q 98 -3 56 25 q 14 53 -1 98 q -16 142 -8 194 q 0 246 26 290 q 52 335 94 364 q 135 392 185 390 q 206 389 219 378 q 232 367 238 352 q 244 336 242 318 q 240 300 231 285 q 214 276 205 282 q 196 288 194 296 z"},"!":{"x_min":0,"x_max":410,"ha":410,"o":"m 391 725 q 348 522 294 320 q 241 118 193 -85 q 190 -89 174 -92 q 159 -95 143 -93 q 127 -91 116 -82 q 104 -73 109 -52 q 154 148 192 348 q 231 549 270 750 q 273 765 294 772 q 315 778 338 775 q 360 772 378 760 q 395 747 391 725 z m 145 -137 q 165 -137 176 -150 q 188 -163 185 -182 q 181 -201 166 -214 q 150 -227 130 -227 q 110 -227 98 -214 q 87 -201 91 -182 q 94 -163 110 -150 q 125 -137 145 -137 z"},"/":{"x_min":0,"x_max":587,"ha":587,"o":"m 132 -123 l 487 756 q 499 759 516 758 q 532 756 545 748 q 558 739 564 721 q 570 703 562 673 q 538 615 510 544 q 481 472 450 394 q 418 317 385 236 q 352 154 321 76 q 290 -1 261 -72 q 232 -144 209 -202 q 194 -201 179 -196 q 164 -191 153 -182 q 142 -172 136 -158 q 130 -143 132 -123 z"},"[":{"x_min":0,"x_max":383,"ha":383,"o":"m 18 -241 l 0 -224 q -2 -192 4 -137 q 9 -82 20 -12 q 32 58 48 138 q 63 218 81 299 q 99 380 118 458 q 137 535 156 600 q 175 666 192 714 q 208 762 221 785 l 237 793 q 251 793 272 793 q 293 793 316 792 q 338 792 359 792 q 380 791 395 791 q 406 786 406 774 q 405 763 395 755 q 381 755 366 756 q 351 756 337 757 q 319 717 296 644 q 274 571 251 480 q 228 390 206 290 q 185 190 168 96 q 150 3 138 -76 q 127 -156 126 -205 q 139 -206 151 -206 q 163 -206 180 -206 q 192 -214 190 -225 q 187 -236 180 -242 q 139 -242 98 -242 q 58 -242 18 -241 z"},"6":{"x_min":0,"x_max":697,"ha":697,"o":"m 420 720 q 366 669 318 599 q 271 529 234 452 q 197 374 171 293 q 145 212 133 139 q 128 106 126 68 q 124 30 127 -7 q 130 -44 140 -78 q 149 -111 166 -137 q 184 -163 210 -178 q 236 -193 273 -192 q 316 -191 354 -168 q 391 -146 422 -109 q 452 -72 474 -25 q 496 22 508 72 q 520 121 522 169 q 523 217 512 256 q 500 295 475 321 q 450 347 409 353 q 340 361 290 330 q 239 300 212 237 q 201 226 188 231 q 176 236 179 251 q 211 326 272 362 q 333 398 414 388 q 471 381 509 350 q 547 320 567 275 q 587 230 590 174 q 594 119 581 62 q 568 6 540 -48 q 511 -101 468 -142 q 425 -184 368 -209 q 311 -234 241 -233 q 155 -232 104 -197 q 52 -162 28 -107 q 3 -52 0 16 q -2 85 10 153 q 23 231 52 318 q 82 406 124 490 q 167 575 221 649 q 275 723 337 773 q 351 783 368 781 q 385 779 399 770 q 413 762 420 748 q 427 734 420 720 z"},"r":{"x_min":0,"x_max":324,"ha":324,"o":"m 281 316 q 278 304 270 279 q 261 254 252 222 q 243 191 235 158 q 227 125 225 98 q 223 71 228 54 q 233 36 251 37 q 266 37 278 45 q 291 53 301 64 q 311 75 319 88 q 327 102 333 113 q 345 122 356 114 q 367 107 365 97 q 354 76 342 58 q 331 40 316 27 q 302 14 283 7 q 264 0 238 0 q 188 0 160 22 q 133 45 122 80 q 112 115 115 156 q 118 198 128 238 q 137 278 150 310 q 163 342 173 358 l 90 401 q 100 369 98 326 q 97 284 88 240 q 79 195 64 153 q 50 111 33 82 q 28 78 22 77 q 16 76 10 78 q 5 80 2 85 q -2 90 0 97 q 15 121 30 166 q 46 212 55 262 q 64 312 62 358 q 60 403 41 426 q 47 435 55 444 q 63 454 77 447 q 92 439 124 424 q 157 408 191 390 q 225 371 252 352 q 278 332 281 316 z"},"2":{"x_min":0,"x_max":738,"ha":738,"o":"m 116 35 q 160 39 214 23 q 267 7 327 -16 q 366 30 403 89 q 440 148 469 212 q 498 276 518 342 q 537 408 540 470 q 543 522 534 572 q 524 621 500 659 q 476 697 436 718 q 395 739 335 735 q 280 724 242 696 q 205 669 182 630 q 160 591 151 543 q 142 495 144 444 q 139 434 126 433 q 113 432 108 443 q 105 509 120 568 q 135 628 168 673 q 201 718 253 746 q 305 773 377 776 q 452 779 508 758 q 564 736 600 694 q 636 653 652 594 q 668 535 664 462 q 660 394 640 324 q 620 253 588 185 q 557 117 516 55 q 476 -7 431 -57 q 492 -80 552 -98 q 613 -115 669 -117 q 688 -120 694 -136 q 699 -152 696 -170 q 693 -189 684 -204 q 674 -220 664 -220 q 610 -225 568 -218 q 526 -211 492 -196 q 457 -181 428 -160 q 398 -140 369 -117 q 312 -166 250 -194 q 189 -223 126 -223 q 85 -223 57 -205 q 29 -187 15 -160 q 1 -132 0 -100 q -1 -67 12 -38 q 24 -10 50 10 q 77 31 116 35 z m 88 -166 q 135 -168 186 -140 q 237 -111 287 -60 q 270 -50 248 -39 q 227 -28 204 -20 q 181 -12 158 -8 q 134 -3 114 -5 q 91 -8 74 -20 q 58 -33 48 -50 q 39 -68 36 -88 q 33 -108 38 -125 q 42 -142 54 -154 q 67 -165 88 -166 z"},"{":{"x_min":0,"x_max":334,"ha":334,"o":"m 97 267 q 126 253 138 226 q 150 200 151 167 q 152 134 145 96 q 138 57 130 18 q 121 -21 114 -58 q 107 -95 108 -126 q 109 -156 120 -178 q 132 -200 161 -209 q 170 -214 170 -226 q 170 -239 157 -245 q 97 -240 63 -218 q 29 -196 14 -164 q 0 -131 0 -90 q 0 -48 8 -5 q 15 38 26 80 q 36 123 42 159 q 48 195 46 221 q 43 247 24 258 q 16 264 15 274 q 14 284 28 291 q 54 297 69 337 q 84 377 98 433 q 111 489 128 552 q 144 616 174 670 q 204 724 252 760 q 300 795 376 795 q 387 790 387 776 q 387 763 376 759 q 332 758 308 726 q 284 694 269 645 q 254 596 243 537 q 232 478 216 424 q 199 369 172 326 q 145 284 97 267 z"},"9":{"x_min":0,"x_max":692,"ha":692,"o":"m 171 -172 q 225 -121 272 -51 q 320 19 357 96 q 394 174 420 254 q 445 335 457 409 q 465 459 465 518 q 465 576 451 626 q 437 676 405 708 q 373 741 318 740 q 261 739 214 700 q 166 661 132 603 q 99 545 82 477 q 66 409 70 349 q 73 289 100 246 q 127 203 181 196 q 250 188 301 218 q 352 248 379 311 q 390 322 402 317 q 415 312 412 297 q 380 223 319 186 q 258 150 177 160 q 120 167 82 198 q 44 228 24 273 q 4 318 0 374 q -3 429 10 486 q 23 542 52 596 q 80 649 123 690 q 166 732 223 757 q 280 782 350 781 q 436 780 487 745 q 538 710 563 655 q 588 600 590 532 q 593 464 581 396 q 568 318 538 230 q 509 142 466 58 q 424 -27 370 -101 q 316 -175 254 -225 q 240 -234 222 -232 q 205 -231 192 -222 q 178 -213 171 -200 q 164 -186 171 -172 z"}," ":{"x_min":0,"x_max":361,"ha":361,"o":""},"I":{"x_min":0,"x_max":560,"ha":560,"o":"m 110 -185 q 159 -193 196 -160 q 234 -126 264 -64 q 293 -3 318 79 q 342 161 366 250 q 390 338 417 426 q 444 513 478 586 q 511 659 555 710 q 599 761 657 776 q 671 776 676 764 q 681 751 669 743 q 637 727 614 677 q 590 627 570 555 q 549 483 530 396 q 510 310 487 222 q 464 135 434 53 q 405 -29 364 -92 q 323 -155 269 -192 q 215 -229 142 -227 q 89 -226 55 -194 q 21 -161 8 -112 q -5 -63 4 -6 q 13 50 47 98 q 81 147 141 179 q 201 211 289 211 q 296 211 300 206 q 304 200 304 194 q 305 187 301 182 q 297 176 289 175 q 222 177 174 155 q 125 133 94 98 q 62 62 48 18 q 33 -26 36 -66 q 38 -107 56 -140 q 75 -172 110 -185 z"},"H":{"x_min":0,"x_max":929,"ha":929,"o":"m 974 -226 q 877 -224 818 -187 q 760 -150 730 -91 q 700 -32 696 43 q 691 118 702 197 l 469 185 q 456 145 440 100 q 424 55 403 10 q 382 -35 356 -76 q 329 -118 296 -149 q 262 -180 220 -198 q 179 -217 128 -215 q 72 -214 40 -183 q 9 -152 2 -106 q -5 -59 12 -5 q 30 49 73 96 q 116 144 184 177 q 253 210 348 215 q 360 249 378 300 q 396 352 414 410 q 431 467 444 524 q 458 582 462 629 q 465 676 454 706 q 444 737 413 740 q 386 741 364 727 q 341 713 326 690 q 311 667 305 638 q 299 609 305 580 q 311 551 330 526 q 349 501 385 486 q 391 482 392 476 q 393 469 391 464 q 389 458 384 454 q 378 451 371 453 q 326 472 302 504 q 278 535 270 571 q 263 607 270 644 q 278 680 297 710 q 316 739 344 758 q 372 776 407 776 q 477 777 513 746 q 549 715 561 665 q 573 615 566 552 q 559 490 544 428 q 529 366 510 311 q 492 256 481 221 l 708 233 q 711 252 724 295 q 736 338 750 392 q 765 446 780 504 q 795 563 804 614 q 812 665 812 702 q 812 738 798 747 q 789 754 793 765 q 797 776 809 777 q 858 770 882 739 q 905 708 911 662 q 917 615 910 558 q 902 501 888 444 q 875 386 860 333 q 846 280 837 240 l 984 250 q 997 244 998 233 q 998 222 987 214 q 972 213 952 212 q 931 210 909 208 q 887 207 866 206 q 845 205 830 204 q 820 145 818 86 q 817 26 832 -27 q 847 -80 882 -123 q 918 -166 982 -193 q 992 -201 988 -212 q 985 -224 974 -226 z m 96 -173 q 124 -179 150 -162 q 177 -144 201 -113 q 225 -82 246 -41 q 266 0 284 40 q 301 81 314 118 q 327 155 335 178 q 271 176 220 153 q 168 130 130 96 q 91 61 68 20 q 46 -22 40 -60 q 35 -98 48 -129 q 62 -160 96 -173 z"},"4":{"x_min":0,"x_max":754,"ha":754,"o":"m 643 539 q 637 505 624 442 q 612 379 596 302 q 580 226 562 144 q 545 63 530 -8 q 514 -79 503 -132 q 492 -185 489 -204 q 483 -218 460 -224 q 437 -230 413 -227 q 389 -224 372 -212 q 355 -201 361 -179 q 365 -161 374 -124 q 384 -88 396 -40 q 408 8 422 66 q 436 124 451 186 q 342 183 234 178 q 126 173 17 173 q 6 175 2 184 q -2 192 3 202 q 49 262 94 327 q 140 392 178 462 q 215 531 240 605 q 265 679 268 758 q 273 770 294 775 q 314 780 336 778 q 359 775 376 766 q 394 757 393 742 q 387 658 358 578 q 329 499 291 429 q 253 359 213 303 q 173 247 145 211 q 224 213 302 216 q 380 220 459 222 q 479 308 497 392 q 515 476 529 548 q 544 566 561 572 q 578 577 594 574 q 610 572 624 562 q 637 552 643 539 z"},"~":{"x_min":0,"x_max":983,"ha":983,"o":"m 883 313 q 850 240 810 204 q 769 168 724 157 q 680 146 632 153 q 584 160 536 174 q 488 189 442 204 q 395 218 352 222 q 309 225 272 210 q 235 196 207 153 q 203 148 196 147 q 190 146 184 148 q 179 149 176 154 q 172 159 174 166 q 188 236 218 271 q 249 306 290 318 q 332 329 382 323 q 432 317 486 305 q 539 293 592 280 q 646 267 694 264 q 743 262 784 276 q 825 289 852 330 q 864 340 874 332 q 884 323 883 313 z"},"D":{"x_min":0,"x_max":961,"ha":961,"o":"m 112 -173 q 162 -181 197 -152 q 232 -122 259 -68 q 286 -14 306 60 q 327 133 348 212 q 368 291 390 370 q 413 449 444 515 q 475 581 516 628 q 558 674 616 689 q 630 688 636 676 q 641 664 628 655 q 605 644 588 614 q 570 584 555 540 q 540 496 527 442 q 514 388 502 329 q 489 270 475 210 q 461 149 444 92 q 471 96 504 95 q 510 93 513 88 q 516 84 516 78 q 517 72 514 67 q 510 62 502 59 q 464 62 431 54 q 415 6 394 -40 q 373 -85 340 -123 q 354 -151 381 -169 q 408 -187 447 -186 q 514 -185 568 -145 q 623 -105 664 -40 q 705 25 731 108 q 757 191 767 278 q 777 364 770 447 q 764 530 740 595 q 715 660 672 700 q 629 739 566 739 q 542 739 516 732 q 489 725 464 712 q 439 700 418 682 q 397 665 384 645 q 361 610 358 570 q 354 529 374 492 q 375 487 372 482 q 369 476 364 473 q 359 470 353 470 q 347 470 342 475 q 318 521 322 572 q 326 622 354 665 q 390 720 450 748 q 509 775 574 777 q 664 780 728 739 q 792 698 832 628 q 871 559 886 470 q 901 380 893 286 q 885 192 854 101 q 822 10 768 -62 q 715 -133 640 -178 q 566 -223 470 -225 q 413 -226 374 -204 q 335 -183 314 -150 q 280 -182 238 -200 q 195 -217 144 -215 q 91 -214 56 -182 q 22 -151 8 -104 q -5 -56 4 -1 q 12 54 46 101 q 79 148 139 180 q 199 211 287 211 q 294 211 298 206 q 302 200 302 194 q 302 187 298 182 q 295 176 287 175 q 220 177 172 156 q 124 135 92 100 q 61 66 48 24 q 34 -18 36 -58 q 39 -97 58 -128 q 77 -160 112 -173 z"},"^":{"x_min":0,"x_max":366,"ha":366,"o":"m 224 521 l 217 665 l 106 516 q 96 515 85 518 q 74 521 66 528 q 58 536 54 547 q 51 558 56 573 q 88 616 103 636 q 118 657 126 666 q 133 676 136 680 q 138 684 146 694 q 153 703 168 724 q 183 744 215 787 q 239 799 259 796 q 279 792 286 760 l 299 509 q 292 501 282 496 q 271 492 260 492 q 249 492 239 499 q 229 506 224 521 z"},"0":{"x_min":0,"x_max":705,"ha":705,"o":"m 336 624 q 304 612 277 586 q 250 560 228 526 q 207 492 190 452 q 173 412 160 372 q 148 331 140 292 q 133 254 129 224 q 125 192 126 147 q 126 102 132 54 q 137 7 150 -38 q 162 -84 183 -118 q 204 -152 234 -170 q 263 -187 304 -178 q 361 -156 406 -106 q 451 -56 482 12 q 514 79 532 158 q 549 237 552 316 q 555 396 542 471 q 530 546 502 604 q 473 663 427 700 q 381 736 317 740 q 246 741 192 704 q 137 666 100 609 q 89 604 78 610 q 66 615 70 629 q 113 694 175 736 q 237 778 318 776 q 404 776 466 734 q 527 691 564 621 q 601 551 615 461 q 629 371 622 278 q 614 184 585 94 q 556 4 508 -67 q 459 -138 392 -182 q 324 -225 239 -226 q 183 -227 143 -204 q 103 -181 75 -143 q 47 -105 30 -56 q 14 -6 7 46 q 0 98 0 148 q 0 199 5 240 q 9 274 20 318 q 30 363 46 410 q 63 457 86 502 q 108 548 137 584 q 166 620 202 643 q 238 666 281 668 q 290 669 306 668 q 322 666 334 660 q 346 655 349 646 q 352 637 336 624 z"},"F":{"x_min":0,"x_max":833,"ha":833,"o":"m 375 314 q 392 376 413 434 q 434 492 462 539 q 489 586 525 619 q 561 652 608 664 q 615 664 620 660 q 625 657 627 652 q 629 646 628 640 q 626 635 620 631 q 598 620 581 592 q 564 563 550 522 q 536 481 524 430 q 512 379 500 324 q 512 324 536 324 q 561 323 591 322 q 621 321 652 318 q 683 316 709 312 q 735 308 752 302 q 768 296 768 289 q 768 278 764 260 q 760 242 756 222 q 751 203 747 185 q 743 167 741 156 q 736 139 716 131 q 695 123 674 124 q 652 125 636 136 q 619 148 621 171 q 627 198 633 224 q 639 251 644 278 q 606 283 568 286 q 531 289 493 288 q 483 244 470 188 q 458 133 440 76 q 422 18 396 -37 q 371 -92 336 -134 q 300 -177 254 -202 q 207 -227 147 -225 q 101 -224 69 -202 q 37 -181 20 -147 q 3 -113 0 -70 q -2 -26 11 21 q 24 68 53 114 q 82 161 127 201 q 172 241 234 271 q 296 301 375 314 z m 138 -185 q 187 -185 220 -144 q 254 -103 278 -37 q 303 29 323 112 q 343 194 364 276 q 272 258 208 217 q 143 176 104 124 q 66 73 50 18 q 35 -36 40 -82 q 46 -127 72 -156 q 97 -185 138 -185 z m 894 789 q 897 790 902 789 q 908 788 914 786 q 919 783 922 778 q 926 774 925 769 q 910 727 879 708 q 848 688 807 682 q 766 676 718 680 q 670 683 621 686 q 572 690 524 690 q 477 689 438 676 q 398 662 370 632 q 341 601 329 544 q 324 536 312 534 q 299 531 294 546 q 300 630 327 680 q 354 729 394 754 q 435 780 485 786 q 535 791 588 786 q 640 782 691 772 q 742 763 784 758 q 826 754 856 759 q 885 764 894 789 z"},"`":{"x_min":0,"x_max":280,"ha":280,"o":"m 232 501 q 250 485 243 472 q 236 458 218 451 q 200 444 178 446 q 156 449 143 464 q 107 495 80 522 q 52 548 18 582 q 3 601 14 612 q 25 624 45 628 q 65 632 86 628 q 106 625 112 615 q 128 598 142 584 q 157 570 171 556 q 185 543 200 530 q 215 516 232 501 z"},"k":{"x_min":0,"x_max":482,"ha":482,"o":"m 186 331 q 212 360 242 378 q 271 397 309 396 q 375 396 400 374 q 425 353 417 323 q 409 293 370 261 q 332 229 272 209 q 316 201 340 186 q 363 172 374 154 q 386 135 388 116 q 391 97 392 80 q 394 64 399 52 q 404 41 419 38 q 432 41 443 49 q 454 57 462 68 q 471 78 478 90 q 485 102 491 113 q 502 121 513 114 q 524 108 523 97 q 503 56 477 29 q 451 2 405 1 q 353 -3 325 10 q 297 22 282 42 q 266 63 258 88 q 250 112 238 133 q 227 154 207 168 q 187 182 147 181 q 138 143 128 106 q 119 68 107 32 q 101 14 81 6 q 61 -2 40 0 q 19 2 3 14 q -13 25 -12 48 q -4 78 7 126 q 18 173 33 230 q 48 288 66 351 q 84 414 105 475 q 126 536 150 591 q 175 646 202 688 q 230 729 260 753 q 291 777 325 776 q 365 773 382 756 q 399 738 400 711 q 401 684 388 650 q 376 615 356 579 q 336 543 312 508 q 287 472 264 442 q 240 411 222 390 q 203 368 195 359 z m 350 731 q 337 733 323 715 q 309 697 296 668 q 282 638 269 602 q 256 565 245 530 q 234 496 226 467 q 217 438 213 424 q 230 442 252 472 q 273 501 294 534 q 315 567 332 601 q 350 635 360 663 q 369 691 368 710 q 367 728 350 731 z m 157 221 q 186 227 216 248 q 245 268 266 292 q 287 315 296 335 q 305 355 295 360 q 281 363 259 347 q 237 331 215 308 q 193 285 176 260 q 160 236 157 221 z"},"u":{"x_min":0,"x_max":455,"ha":455,"o":"m 412 347 q 408 338 398 311 q 389 284 378 250 q 368 215 360 177 q 351 139 348 108 q 346 76 353 56 q 360 36 382 37 q 397 37 410 45 q 422 53 432 64 q 442 75 450 88 q 458 102 464 113 q 475 121 486 114 q 498 108 496 97 q 485 76 474 58 q 462 40 448 27 q 433 14 414 7 q 395 0 369 0 q 356 0 336 2 q 317 5 298 16 q 279 28 264 52 q 249 76 245 119 q 222 68 193 34 q 164 1 121 0 q 108 0 90 2 q 71 5 52 16 q 33 27 18 50 q 2 73 -3 114 q -8 154 0 216 q 9 277 37 365 q 43 383 64 390 q 85 398 108 396 q 130 394 147 382 q 164 369 163 347 q 160 338 150 311 q 141 284 130 250 q 120 215 111 177 q 102 139 100 108 q 98 76 105 56 q 112 36 134 37 q 151 37 168 56 q 184 76 200 107 q 215 138 229 176 q 243 214 255 251 q 260 276 268 304 q 275 333 286 365 q 292 383 313 390 q 334 398 356 396 q 378 394 396 382 q 413 369 412 347 z"},"]":{"x_min":0,"x_max":502,"ha":502,"o":"m 454 776 q 456 744 450 689 q 445 634 434 564 q 422 494 406 414 q 391 334 373 253 q 355 172 336 94 q 317 17 298 -48 q 279 -114 262 -162 q 246 -211 233 -233 l 217 -241 q 203 -241 182 -241 q 161 -241 138 -240 q 116 -240 95 -240 q 74 -239 59 -239 q 48 -234 48 -222 q 49 -211 59 -203 q 73 -203 88 -204 q 103 -204 117 -205 q 135 -165 158 -92 q 180 -19 203 72 q 226 162 248 262 q 269 362 286 456 q 304 549 316 628 q 327 708 328 757 q 315 758 303 758 q 291 758 274 758 q 262 766 264 777 q 267 788 274 794 q 315 794 356 794 q 396 794 436 793 z"},"U":{"x_min":0,"x_max":809,"ha":809,"o":"m 862 682 q 854 650 841 604 q 828 559 813 508 q 798 458 782 406 q 766 354 752 310 q 739 265 730 232 q 720 200 716 188 q 710 166 700 132 q 689 98 680 59 q 670 20 664 -20 q 659 -61 662 -96 q 665 -131 680 -156 q 694 -182 726 -192 q 736 -199 734 -212 q 733 -225 719 -227 q 660 -219 624 -198 q 587 -176 568 -145 q 549 -114 544 -76 q 540 -37 544 4 q 549 46 560 90 q 571 133 583 173 q 545 98 499 26 q 453 -47 400 -104 q 346 -161 285 -195 q 224 -229 157 -227 q 117 -222 94 -199 q 72 -176 64 -141 q 55 -106 58 -61 q 60 -16 70 32 q 80 81 94 130 q 108 179 122 223 q 137 267 150 303 q 163 339 169 362 q 174 378 184 412 q 194 447 204 489 q 214 531 220 576 q 226 620 222 656 q 219 693 202 716 q 186 740 151 740 q 127 740 105 726 q 83 711 67 688 q 51 665 42 636 q 33 607 36 579 q 39 551 56 526 q 74 501 109 486 q 115 482 116 476 q 117 469 115 464 q 113 458 108 454 q 102 451 95 453 q 52 472 30 503 q 7 534 2 570 q -3 606 6 642 q 16 679 38 709 q 59 739 89 758 q 119 776 155 776 q 221 776 260 754 q 298 732 317 696 q 336 659 338 612 q 340 564 333 514 q 326 465 313 417 q 300 369 289 330 q 287 322 277 296 q 267 269 254 231 q 240 193 224 147 q 208 101 194 54 q 179 6 167 -38 q 155 -83 150 -118 q 145 -152 148 -174 q 150 -195 165 -196 q 219 -195 268 -168 q 317 -141 362 -96 q 406 -51 446 10 q 487 70 523 138 q 559 207 590 280 q 622 354 650 426 q 677 497 700 562 q 722 628 741 682 q 753 705 770 713 q 788 721 806 718 q 824 716 839 706 q 854 695 862 682 z"},"o":{"x_min":0,"x_max":363,"ha":363,"o":"m 125 372 q 139 383 156 389 q 173 395 194 394 q 234 392 260 374 q 286 355 300 327 q 313 299 316 264 q 319 230 314 197 q 378 199 406 211 q 423 210 426 198 q 429 187 421 179 q 404 171 374 166 q 344 161 306 161 q 297 131 282 102 q 266 73 244 50 q 223 27 195 13 q 167 -1 133 -1 q 86 -1 56 19 q 26 39 10 72 q -6 105 -9 146 q -12 187 -4 229 q 3 271 20 310 q 36 349 59 378 q 66 386 75 388 q 84 390 93 388 q 102 386 110 382 q 119 377 125 372 z m 160 352 q 167 340 160 330 q 152 317 146 304 q 140 292 135 279 q 143 258 158 243 q 174 228 194 218 q 214 209 236 204 q 258 199 278 198 q 282 223 281 250 q 280 278 271 302 q 262 325 243 341 q 224 357 193 358 q 176 359 160 352 z m 269 163 q 227 167 188 182 q 149 197 122 231 q 119 214 117 184 q 115 154 118 124 q 122 94 133 70 q 144 47 167 44 q 182 42 198 56 q 215 69 229 88 q 243 108 254 129 q 265 150 269 163 z"},"N":{"x_min":0,"x_max":927,"ha":927,"o":"m 413 740 q 386 741 364 727 q 342 713 327 690 q 312 667 306 638 q 300 609 306 580 q 312 551 331 526 q 350 501 385 486 q 391 482 392 476 q 394 469 392 464 q 389 458 384 454 q 378 451 371 453 q 326 472 302 504 q 278 535 270 571 q 263 607 270 644 q 278 680 297 710 q 316 739 344 758 q 373 776 407 776 q 472 778 506 747 q 540 716 552 666 q 564 615 558 552 q 553 488 539 424 q 525 361 507 305 q 489 249 476 213 q 493 239 519 290 q 545 341 578 402 q 611 463 650 528 q 688 593 730 646 q 773 700 817 736 q 861 772 905 776 q 933 777 946 756 q 960 736 962 701 q 964 666 957 620 q 950 573 938 522 q 925 472 910 421 q 894 370 879 324 q 864 279 852 244 q 840 208 834 188 q 828 166 818 132 q 807 98 798 59 q 788 20 782 -20 q 777 -61 780 -96 q 783 -131 798 -156 q 813 -182 844 -192 q 853 -199 852 -212 q 850 -225 836 -227 q 771 -218 734 -193 q 696 -168 678 -132 q 661 -96 660 -52 q 659 -9 667 38 q 675 85 688 132 q 702 178 714 220 q 723 250 740 299 q 757 348 776 403 q 796 458 816 514 q 835 570 848 616 q 862 661 867 690 q 872 718 864 719 q 842 721 812 694 q 783 667 750 621 q 716 575 679 513 q 642 451 604 382 q 566 313 529 242 q 492 171 458 106 q 424 41 394 -14 q 364 -68 341 -104 q 306 -158 258 -190 q 211 -222 142 -227 q 88 -226 54 -194 q 20 -161 7 -112 q -6 -63 4 -6 q 14 50 48 98 q 82 147 142 179 q 202 211 289 211 q 296 211 300 206 q 304 200 304 194 q 305 187 301 182 q 297 176 289 175 q 222 177 174 155 q 125 133 94 98 q 62 62 48 18 q 33 -26 36 -66 q 38 -107 57 -140 q 76 -172 111 -185 q 140 -190 171 -156 q 202 -121 234 -60 q 265 0 296 80 q 328 159 357 243 q 378 303 397 362 q 416 421 430 475 q 445 529 453 576 q 461 622 460 657 q 459 692 448 714 q 437 736 413 740 z"},"+":{"x_min":0,"x_max":638,"ha":638,"o":"m 335 24 q 326 6 312 -2 q 299 -11 284 -12 q 268 -14 252 -10 q 236 -6 222 1 l 262 201 l 59 201 q 55 216 54 232 q 53 249 58 264 q 62 279 73 290 q 84 302 104 307 l 283 307 l 316 471 q 326 501 342 512 q 357 524 374 524 q 390 524 406 516 q 421 508 430 499 l 391 307 l 588 307 q 595 296 600 280 q 605 264 602 248 q 599 231 584 218 q 570 205 539 201 l 370 201 z"},"G":{"x_min":0,"x_max":775,"ha":775,"o":"m 760 513 q 736 413 716 313 q 697 213 669 113 q 662 87 654 60 q 646 33 636 7 q 675 14 700 26 q 725 39 742 54 q 758 69 768 84 q 777 100 784 113 q 795 121 806 114 q 817 108 816 97 q 805 75 792 54 q 778 34 757 17 q 736 0 704 -12 q 672 -25 623 -31 q 600 -90 569 -150 q 538 -211 496 -260 q 453 -310 398 -342 q 343 -374 272 -376 q 223 -377 189 -360 q 155 -342 138 -313 q 121 -284 122 -247 q 123 -210 145 -173 q 167 -136 211 -103 q 255 -70 324 -48 q 371 -33 416 -24 q 462 -16 498 -11 q 528 66 549 144 q 564 200 576 255 q 588 310 599 366 q 579 330 554 290 q 529 250 500 211 q 471 172 438 138 q 405 103 368 77 q 332 51 292 36 q 252 21 210 23 q 133 26 86 60 q 39 95 18 150 q -3 204 0 272 q 3 339 26 410 q 50 480 92 547 q 134 614 192 666 q 249 718 320 750 q 390 781 470 780 q 542 779 584 752 q 627 724 643 685 q 659 646 652 602 q 644 557 616 522 q 588 488 542 470 q 495 451 434 464 q 422 469 424 482 q 427 496 442 499 q 488 488 524 502 q 559 515 581 541 q 603 567 610 601 q 617 635 608 665 q 598 695 570 717 q 543 739 495 741 q 441 743 390 716 q 339 689 296 643 q 252 597 217 538 q 182 478 159 415 q 136 352 126 291 q 117 230 124 182 q 131 133 157 102 q 183 70 230 67 q 273 64 315 87 q 357 110 396 148 q 435 186 471 235 q 507 284 537 333 q 567 382 590 427 q 614 472 629 502 q 642 530 660 541 q 679 552 698 550 q 717 549 734 538 q 750 528 760 513 z m 233 -330 q 275 -331 314 -300 q 352 -269 385 -224 q 418 -180 443 -132 q 468 -83 482 -49 q 451 -54 410 -62 q 370 -70 328 -84 q 280 -100 246 -124 q 212 -148 190 -175 q 169 -202 162 -229 q 154 -256 160 -278 q 165 -301 183 -315 q 201 -329 233 -330 z"},"q":{"x_min":0,"x_max":477,"ha":477,"o":"m 186 388 q 229 386 254 363 q 279 340 289 305 q 302 344 306 365 q 310 380 330 388 q 351 397 374 396 q 396 395 414 384 q 432 372 432 347 q 426 327 416 291 q 405 255 393 210 q 381 164 368 112 q 356 59 346 7 q 396 17 428 41 q 461 65 486 113 q 497 122 508 115 q 519 108 518 97 q 491 41 450 12 q 409 -18 349 -29 q 372 -49 389 -82 q 406 -115 416 -154 q 425 -192 426 -232 q 427 -271 417 -304 q 407 -336 385 -357 q 363 -378 328 -379 q 288 -379 262 -361 q 236 -343 221 -312 q 206 -280 201 -238 q 196 -196 198 -148 q 200 -99 208 -46 q 215 6 226 58 q 204 32 177 16 q 150 1 118 1 q 67 1 38 30 q 8 59 -2 103 q -11 147 -2 198 q 7 248 32 291 q 56 334 96 362 q 135 390 186 388 z m 159 46 q 179 54 198 76 q 217 98 232 128 q 246 158 254 192 q 263 225 263 256 q 263 286 253 310 q 243 334 220 344 q 198 351 178 330 q 159 308 146 272 q 132 237 124 194 q 116 152 116 116 q 117 81 127 60 q 137 39 159 46 z m 334 -63 q 332 -76 328 -100 q 325 -125 322 -155 q 319 -185 318 -216 q 316 -248 318 -274 q 320 -299 327 -316 q 334 -332 348 -332 q 365 -332 374 -316 q 384 -300 387 -275 q 390 -250 388 -219 q 385 -188 378 -158 q 370 -128 359 -102 q 348 -77 334 -63 z"},"d":{"x_min":0,"x_max":462,"ha":462,"o":"m 388 37 q 403 37 416 44 q 428 52 438 64 q 449 75 457 88 q 465 101 471 113 q 483 122 494 114 q 505 107 503 97 q 492 76 480 58 q 469 40 454 28 q 440 15 421 8 q 402 0 375 0 q 324 -1 298 30 q 271 62 263 114 q 239 66 202 34 q 165 1 118 1 q 67 1 38 30 q 8 59 -2 103 q -11 147 -2 198 q 7 248 32 291 q 56 334 96 362 q 135 390 186 388 q 223 386 246 369 q 270 352 282 325 q 295 378 314 432 q 333 487 356 538 q 378 588 404 632 q 429 676 454 708 q 480 740 504 758 q 529 777 550 776 q 590 773 607 756 q 624 738 625 711 q 626 684 614 650 q 601 615 581 579 q 561 543 536 508 q 512 472 488 442 q 465 411 446 390 q 428 368 420 359 q 415 343 406 313 q 397 283 388 247 q 378 211 370 174 q 362 136 360 106 q 358 75 364 56 q 370 36 388 37 z m 159 46 q 179 54 198 76 q 217 98 232 128 q 246 158 254 192 q 263 225 263 256 q 263 286 253 310 q 243 334 220 344 q 198 351 178 330 q 159 308 146 272 q 132 237 124 194 q 116 152 116 116 q 117 81 127 60 q 137 39 159 46 z m 575 731 q 562 733 548 715 q 534 697 520 668 q 507 638 494 602 q 481 565 470 530 q 459 496 450 467 q 442 438 438 424 q 455 442 476 472 q 498 501 519 534 q 540 567 558 601 q 575 635 584 663 q 594 691 592 710 q 591 728 575 731 z"},"1":{"x_min":0,"x_max":320,"ha":320,"o":"m 1 599 q 12 622 30 652 q 49 683 73 710 q 97 738 125 757 q 153 776 183 776 q 228 776 250 738 q 272 701 277 639 q 282 577 274 496 q 266 416 250 330 q 234 243 214 157 q 193 71 174 -2 q 155 -75 141 -128 q 127 -182 123 -204 q 117 -218 95 -224 q 73 -230 50 -227 q 27 -224 11 -212 q -5 -201 1 -179 q 7 -155 20 -103 q 34 -51 50 18 q 67 87 86 167 q 106 247 124 328 q 141 408 156 482 q 172 557 181 614 q 190 672 192 706 q 193 741 183 742 q 160 743 137 725 q 114 707 94 682 q 73 656 57 628 q 41 601 33 584 q 28 579 22 578 q 16 578 10 580 q 5 582 2 587 q -1 592 1 599 z"},"5":{"x_min":0,"x_max":697,"ha":697,"o":"m 183 657 q 179 604 170 544 q 160 484 149 433 q 251 458 328 442 q 404 426 456 384 q 509 342 537 280 q 565 217 569 148 q 573 80 553 12 q 533 -57 490 -110 q 446 -164 380 -197 q 313 -230 224 -228 q 134 -226 82 -188 q 31 -151 12 -96 q -7 -41 4 22 q 14 84 48 136 q 83 188 138 220 q 194 251 265 244 q 270 242 272 236 q 274 231 274 225 q 273 219 270 214 q 267 209 261 208 q 207 213 164 192 q 120 170 90 132 q 60 94 46 47 q 32 0 38 -45 q 43 -90 70 -127 q 97 -164 150 -181 q 212 -197 264 -176 q 316 -156 354 -112 q 392 -68 416 -8 q 439 53 444 116 q 449 179 434 238 q 420 297 382 338 q 344 379 282 396 q 220 412 130 390 q 118 385 110 392 q 103 399 107 412 q 119 457 126 498 q 132 538 136 577 q 140 616 142 656 q 145 696 148 740 q 153 768 178 772 q 204 777 242 770 q 279 764 325 752 q 371 739 418 734 q 464 728 507 734 q 550 741 582 773 q 596 778 604 772 q 611 767 612 756 q 600 704 576 674 q 552 644 520 630 q 489 617 452 616 q 416 616 380 622 q 343 629 309 639 q 275 649 248 656 q 221 664 204 666 q 186 667 183 657 z"}}}
